<svg data-name="13 - Copy" xmlns="http://www.w3.org/2000/svg" width="168" height="53.783" viewBox="0 0 168 53.783"><g data-name="Group 7"><g data-name="Group 1"><path data-name="Path 1" d="M2.733.033A2.534 2.534 0 0 1 4.576.79a3.066 3.066 0 0 1 .823 1.909v3h7.534a2.343 2.343 0 0 1 1.843.79 2.765 2.765 0 0 1 .724 1.843 2.6 2.6 0 0 1-.79 1.843 2.456 2.456 0 0 1-1.777.79H5.395v4.468a4.287 4.287 0 0 0 .329 1.712 5.156 5.156 0 0 0 .922 1.448 4.1 4.1 0 0 0 1.382.987 4.351 4.351 0 0 0 1.745.362 5.406 5.406 0 0 0 1.745-.263 3.736 3.736 0 0 0 1.284-.823 2.829 2.829 0 0 1 1.843-.724 2.749 2.749 0 0 1 1.876.757 2.271 2.271 0 0 1 .592.79 3.118 3.118 0 0 1 .23.955 3.044 3.044 0 0 1-.132.955 1.694 1.694 0 0 1-.527.823 10.027 10.027 0 0 1-3.028 2.041 9.024 9.024 0 0 1-3.555.724 10.79 10.79 0 0 1-3.851-.691 9.645 9.645 0 0 1-3.193-1.975A9.258 9.258 0 0 1 .885 19.45a10.374 10.374 0 0 1-.856-3.983V2.533A2.3 2.3 0 0 1 .819.756 2.889 2.889 0 0 1 2.733.033z" fill="#fff"/></g><g data-name="Group 2"><path data-name="Path 2" d="M31.665 6.024a2.3 2.3 0 0 1 1.777.79 2.637 2.637 0 0 1 .724 1.712 2.44 2.44 0 0 1-.757 1.777 2.331 2.331 0 0 1-1.712.757h-6.748a.906.906 0 0 0-.987.922 1.062 1.062 0 0 0 .263.691.919.919 0 0 0 .724.3h4.446a5.214 5.214 0 0 1 2.271.494 6.055 6.055 0 0 1 1.81 1.35 5.614 5.614 0 0 1 1.185 1.942 5.927 5.927 0 0 1 .428 2.271 6.722 6.722 0 0 1-.461 2.469 6.651 6.651 0 0 1-1.284 1.942 6.121 6.121 0 0 1-1.975 1.251 6.9 6.9 0 0 1-2.5.461h-6.748a2.336 2.336 0 0 1-1.744-.724 2.584 2.584 0 0 1 0-3.588 2.412 2.412 0 0 1 1.744-.856h6.649c.724 0 1.053-.329 1.053-.955 0-.592-.362-.889-1.053-.889h-4.312a5.281 5.281 0 0 1-2.238-.494 5.952 5.952 0 0 1-1.81-1.317 5.326 5.326 0 0 1-1.185-1.942 6.2 6.2 0 0 1-.428-2.37 5.957 5.957 0 0 1 .461-2.271 6.191 6.191 0 0 1 1.251-1.909 5.889 5.889 0 0 1 4.147-1.843h7.011z" fill="#fff"/></g><g data-name="Group 3"><path data-name="Path 3" d="M87.72 6.155a9.471 9.471 0 0 1 3.687.757 9.882 9.882 0 0 1 5.135 5.1 8.657 8.657 0 0 1 .757 3.654v13.166a2.4 2.4 0 0 1-.79 1.712 2.586 2.586 0 0 1-3.588-.066 2.44 2.44 0 0 1-.757-1.777v-4.509a9.659 9.659 0 0 1-4.411.987 9.434 9.434 0 0 1-3.752-.757 9.344 9.344 0 0 1-5.036-5.069 9.546 9.546 0 0 1 .033-7.373 9.548 9.548 0 0 1 5.069-5.069 9.074 9.074 0 0 1 3.653-.756zm4.411 9.513a4.13 4.13 0 0 0-.329-1.679 4.422 4.422 0 0 0-.922-1.382 4.514 4.514 0 0 0-1.382-.955 4.351 4.351 0 0 0-1.744-.362 4.13 4.13 0 0 0-1.679.329 4.423 4.423 0 0 0-1.383.922 4.514 4.514 0 0 0-.954 1.382 4.412 4.412 0 0 0-.033 3.423 4.572 4.572 0 0 0 .922 1.415 4.513 4.513 0 0 0 1.383.955 4.413 4.413 0 0 0 3.423.033 4.572 4.572 0 0 0 1.415-.922 4.513 4.513 0 0 0 .955-1.382 4.389 4.389 0 0 0 .327-1.777z" fill="#fff"/></g><path data-name="Path 4" d="M103.683 22.481a2.563 2.563 0 0 1-.79 1.876 2.605 2.605 0 0 1-1.942.79 2.563 2.563 0 0 1-1.876-.79 2.532 2.532 0 0 1-.757-1.876 2.665 2.665 0 0 1 .757-1.876 2.511 2.511 0 0 1 1.876-.79 2.657 2.657 0 0 1 1.942.79 2.511 2.511 0 0 1 .79 1.876z" fill="#fff"/><path data-name="Path 5" d="M115.105 6.122a9.068 9.068 0 0 1 6.682 2.765 2.327 2.327 0 0 1 .625 1.777 2.361 2.361 0 0 1-.757 1.679 2.65 2.65 0 0 1-1.81.724 2.168 2.168 0 0 1-1.81-.724 4.225 4.225 0 0 0-2.9-1.086 4.312 4.312 0 0 0-1.71.365 5.447 5.447 0 0 0-1.415.987 4.514 4.514 0 0 0-.955 1.382 4.122 4.122 0 0 0-.362 1.646 4.313 4.313 0 0 0 .362 1.712 4.228 4.228 0 0 0 .988 1.415 5.1 5.1 0 0 0 1.415.955 4.129 4.129 0 0 0 1.679.329 4.179 4.179 0 0 0 2.9-1.053 2.469 2.469 0 0 1 3.621 0 2.165 2.165 0 0 1 .56.757 2.957 2.957 0 0 1 .23.889 2.84 2.84 0 0 1-.132.922 2.376 2.376 0 0 1-.461.79 9.573 9.573 0 0 1-3.03 2.069 9.465 9.465 0 0 1-7.34-.033 9.721 9.721 0 0 1-3.028-2.074 10.758 10.758 0 0 1-2.074-3.028 8.657 8.657 0 0 1-.757-3.654 9.152 9.152 0 0 1 .757-3.621 10.309 10.309 0 0 1 2.074-3.028 10.922 10.922 0 0 1 3.061-2.074 8.182 8.182 0 0 1 3.587-.788z" fill="#fff"/><path data-name="Path 6" d="M133.669 6.484a9.192 9.192 0 0 1 3.654.757 9.628 9.628 0 0 1 3.028 2.041 10.311 10.311 0 0 1 2.074 3.028 8.9 8.9 0 0 1 .757 3.752 9.232 9.232 0 0 1-.757 3.687 9.512 9.512 0 0 1-8.788 5.793 9.21 9.21 0 0 1-3.687-.724 8.934 8.934 0 0 1-3.028-1.975 9.4 9.4 0 0 1-2.8-6.781 9.21 9.21 0 0 1 .724-3.687 9.394 9.394 0 0 1 2.008-3 9.629 9.629 0 0 1 3.028-2.041 9.791 9.791 0 0 1 3.787-.85zm0 5.135a4.13 4.13 0 0 0-1.679.329 4.423 4.423 0 0 0-1.383.922 4.513 4.513 0 0 0-.954 1.382 4.3 4.3 0 0 0 0 3.456 4.662 4.662 0 0 0 .954 1.415 4.515 4.515 0 0 0 1.383.955 4.156 4.156 0 0 0 1.679.362 4.313 4.313 0 0 0 1.712-.362 4.515 4.515 0 0 0 1.382-.955 4.662 4.662 0 0 0 .955-1.415 4.311 4.311 0 0 0 .362-1.712 4.44 4.44 0 0 0-4.411-4.378z" fill="#fff"/><path data-name="Path 7" d="M152.206 6.122a7.834 7.834 0 0 1 2.3.362 6.43 6.43 0 0 1 2.074 1.152 7.043 7.043 0 0 1 7.077-1.02 6.905 6.905 0 0 1 2.238 1.448 6.524 6.524 0 0 1 1.547 2.172 6.157 6.157 0 0 1 .56 2.666v9.875a2.135 2.135 0 0 1-.79 1.646 2.684 2.684 0 0 1-1.81.724 2.586 2.586 0 0 1-2.534-2.534v-9.545a1.619 1.619 0 0 0-.527-1.251 1.9 1.9 0 0 0-1.317-.527 2.025 2.025 0 0 0-1.251.461 1.547 1.547 0 0 0-.56 1.317v9.545a2.459 2.459 0 0 1-.757 1.81 2.589 2.589 0 0 1-1.843.757 2.629 2.629 0 0 1-1.777-.691 2.151 2.151 0 0 1-.79-1.679v-9.743a1.855 1.855 0 0 0-1.81-1.777 1.739 1.739 0 0 0-1.284.527 1.718 1.718 0 0 0-.56 1.284v9.743a2.68 2.68 0 0 1-.79 1.646 2.436 2.436 0 0 1-1.745.691 2.564 2.564 0 0 1-1.02-.2 2.431 2.431 0 0 1-.823-.56 2.8 2.8 0 0 1-.56-.823 2.089 2.089 0 0 1-.165-.987v-9.677a6.362 6.362 0 0 1 .56-2.6 7.068 7.068 0 0 1 1.481-2.172 6.988 6.988 0 0 1 2.238-1.481 5.547 5.547 0 0 1 2.638-.559z" fill="#fff"/><g data-name="Group 4"><path data-name="Path 8" d="M54.771 8.097a2.365 2.365 0 0 0-1.712-.757 2.3 2.3 0 0 0-1.679.724 2.336 2.336 0 0 0-.724 1.745v6.451a3.931 3.931 0 0 1-.329 1.613 5.149 5.149 0 0 1-.889 1.317 4.214 4.214 0 0 1-1.317.889 3.956 3.956 0 0 1-3.16 0 5.149 5.149 0 0 1-1.317-.889 4.214 4.214 0 0 1-.889-1.317 3.722 3.722 0 0 1-.329-1.613V9.809a2.474 2.474 0 0 0-2.4-2.469 2.365 2.365 0 0 0-1.712.757 2.339 2.339 0 0 0-.691 1.679v6.748a7.8 7.8 0 0 0 .724 3.357 9.157 9.157 0 0 0 4.839 4.674 7.409 7.409 0 0 0 3.357.593 8.216 8.216 0 0 0 3.357-.593 9.387 9.387 0 0 0 2.864-1.876 8.971 8.971 0 0 0 1.975-2.8 7.8 7.8 0 0 0 .724-3.357V9.774a2.722 2.722 0 0 0-.692-1.677zm-14.779 3a1.284 1.284 0 1 1 1.284-1.284 1.265 1.265 0 0 1-1.284 1.279zm13.034 0a1.284 1.284 0 1 1 1.284-1.284 1.285 1.285 0 0 1-1.288 1.279z" fill="#fff"/></g><path data-name="Path 9" d="M39.956 10.133a15.426 15.426 0 0 1 .1-3.259 14.192 14.192 0 0 1 .362-1.613 15.409 15.409 0 0 1 .592-1.58 6.511 6.511 0 0 1 2.172-2.666 6.012 6.012 0 0 1 1.613-.757 6.194 6.194 0 0 1 1.744-.23 7.68 7.68 0 0 1 1.745.23 6.012 6.012 0 0 1 1.613.757 6.4 6.4 0 0 1 2.172 2.7 15.423 15.423 0 0 1 .592 1.58 14.016 14.016 0 0 1 .329 1.613 13.5 13.5 0 0 1 .066 3.259 19.879 19.879 0 0 0-.625-3.16 12.373 12.373 0 0 0-1.152-2.9 6.4 6.4 0 0 0-1.975-2.205 3.883 3.883 0 0 0-1.317-.56 6.981 6.981 0 0 0-1.448-.2 5.3 5.3 0 0 0-1.448.2 4.751 4.751 0 0 0-1.317.592 6.092 6.092 0 0 0-1.975 2.205 14.077 14.077 0 0 0-1.185 2.9 21.379 21.379 0 0 0-.658 3.094z" fill="#fff"/><g data-name="Group 6"><g data-name="Group 5"><path data-name="Path 10" d="M76.359 9.019a8.435 8.435 0 0 0-.724-3.522A9.185 9.185 0 0 0 70.829.691 8.758 8.758 0 0 0 67.373 0a10.751 10.751 0 0 0-3.555.79 8.9 8.9 0 0 0-5.464 8.262 9.35 9.35 0 0 0 .263 2.172c.033.329.461 2.732 4.312 9.578a49.928 49.928 0 0 1 4.444 10.467 47.912 47.912 0 0 1 4.443-10.467c4.18-7.406 4.345-9.611 4.345-9.611a15.228 15.228 0 0 0 .198-2.172zm-5.168 1.646a2.622 2.622 0 0 1-.263.527 4.939 4.939 0 0 1-.625.823 4.133 4.133 0 0 1-1.317.922 4.116 4.116 0 0 1-3.226 0 4.534 4.534 0 0 1-1.317-.922 3.879 3.879 0 0 1-.625-.823 2.622 2.622 0 0 1-.263-.527 3.824 3.824 0 0 1-.329-1.613 3.871 3.871 0 0 1 .329-1.646 4.133 4.133 0 0 1 .922-1.317 5.148 5.148 0 0 1 1.317-.889 4.274 4.274 0 0 1 1.613-.329 4.209 4.209 0 0 1 2.929 1.251 4.288 4.288 0 0 1 1.218 2.9 4.61 4.61 0 0 1-.358 1.643z" fill="#fff"/></g></g></g><g data-name="Group 17"><g data-name="Group 8" fill="#fff"><path data-name="Path 11" d="M13.824 38.412a5.506 5.506 0 0 0-1.712-1.119 5.2 5.2 0 0 0-1.975-.428 6.005 6.005 0 0 0-1.317.165 4.782 4.782 0 0 0-1.317.527 6.155 6.155 0 0 0-1.317 1.053 9.658 9.658 0 0 0-1.317 1.712l-4.871 7.735 2.633 1.646 2.962-4.608a5.3 5.3 0 0 0 2.074 1.942 5.491 5.491 0 0 0 2.469.625 5.026 5.026 0 0 0 2.107-.428 5.594 5.594 0 0 0 1.712-1.152 5.194 5.194 0 0 0 1.514-3.687 5.49 5.49 0 0 0-.428-2.205 5.33 5.33 0 0 0-1.217-1.778zm-2.14 5.5a2.313 2.313 0 0 1-1.646.658 2.248 2.248 0 0 1-2.271-2.271 2.371 2.371 0 0 1 .658-1.646 2.141 2.141 0 0 1 1.613-.691 2.265 2.265 0 0 1 1.646.691 2.213 2.213 0 0 1 .691 1.646 2.141 2.141 0 0 1-.69 1.61z"/><path data-name="Path 12" d="M43.843 39.959a4.924 4.924 0 0 0-1.218-1.712 5.24 5.24 0 0 0-1.81-1.053 6.884 6.884 0 0 0-2.205-.362h-1.251l5.661-5.629-2.238-2.172-8.525 8.492v2.4h6.517a2.5 2.5 0 0 1 1.777.625 2.233 2.233 0 0 1 .691 1.745 2.09 2.09 0 0 1-.691 1.679 2.922 2.922 0 0 1-1.942.625H28.435a6.892 6.892 0 0 0 .428-1.152 5.685 5.685 0 0 0 .165-1.382 5.037 5.037 0 0 0-.4-1.975 5.121 5.121 0 0 0-1.086-1.646 5.626 5.626 0 0 0-1.679-1.152 5.178 5.178 0 0 0-2.139-.428 5.643 5.643 0 0 0-2.3.428 5.452 5.452 0 0 0-1.744 1.185 5.574 5.574 0 0 0-1.086 1.745 6.437 6.437 0 0 0-.362 2.107 4.533 4.533 0 0 0 .428 2.041 5.066 5.066 0 0 0 1.119 1.613 5.457 5.457 0 0 0 1.613 1.119 6.584 6.584 0 0 0 1.942.56l-2.4 4.707 2.732 1.415 3.226-6.122h11.882a6.436 6.436 0 0 0 2.107-.362 4.814 4.814 0 0 0 1.777-1.053 5.248 5.248 0 0 0 1.218-1.679 5.642 5.642 0 0 0 .461-2.3 6.093 6.093 0 0 0-.494-2.307zm-18 2.732a5.4 5.4 0 0 1-.23.658 6.135 6.135 0 0 1-.625 1.218h-1.119a2.631 2.631 0 0 1-1.909-.658 2.282 2.282 0 0 1-.658-1.679 2.233 2.233 0 0 1 .691-1.745 2.3 2.3 0 0 1 1.514-.625 2.477 2.477 0 0 1 1.679.625 2.13 2.13 0 0 1 .724 1.777 1.045 1.045 0 0 1-.075.429z"/></g><g data-name="Group 9" fill="#fff"><path data-name="Path 13" d="M65.073 36.173a1.845 1.845 0 0 0 1.317-.56 1.79 1.79 0 0 0 .56-1.317 1.754 1.754 0 0 0-.592-1.317 1.888 1.888 0 0 0-1.284-.56 1.845 1.845 0 0 0-1.317.56 1.79 1.79 0 0 0-.56 1.317 1.713 1.713 0 0 0 .527 1.317 1.654 1.654 0 0 0 1.349.56z"/><path data-name="Path 14" d="M61.058 36.173a1.76 1.76 0 0 0 1.35-.56 1.9 1.9 0 0 0 .494-1.284 1.845 1.845 0 0 0-.56-1.317 1.79 1.79 0 0 0-1.317-.56 1.772 1.772 0 0 0-1.284.56 1.79 1.79 0 0 0 0 2.6 1.721 1.721 0 0 0 1.317.561z"/><path data-name="Path 15" d="M68.986 42.23a2.172 2.172 0 0 1-.2.889 2.61 2.61 0 0 1-1.284 1.284 2.027 2.027 0 0 1-.856.2h-7.53a2.268 2.268 0 0 1-1.843-.691 2.338 2.338 0 0 1-.592-1.547 2.591 2.591 0 0 1 .395-1.382 2.558 2.558 0 0 1 1.251-.987l-2.241-2.276a5.637 5.637 0 0 0-1.876 2.074 5.442 5.442 0 0 0-.625 2.534 5.679 5.679 0 0 0 .362 1.975A5.127 5.127 0 0 0 55 46.015a5.54 5.54 0 0 0 1.712 1.218 5.92 5.92 0 0 0 2.337.461h7.637a5.554 5.554 0 0 0 2.238-.461 5.008 5.008 0 0 0 1.712-1.251 6.444 6.444 0 0 0 1.086-1.745 5.284 5.284 0 0 0 .395-1.975V36.7h-3.094v5.53z"/><path data-name="Path 16" d="M84.427 38.346a5 5 0 0 0-1.679-1.119 5.6 5.6 0 0 0-2.107-.428 5.483 5.483 0 0 0-2.271.428 4.988 4.988 0 0 0-2.8 2.864 5.531 5.531 0 0 0-.4 2.074 5.341 5.341 0 0 0 .4 2.107 5.12 5.12 0 0 0 1.086 1.646 4.976 4.976 0 0 0 1.613 1.086 6.868 6.868 0 0 0 2.041.494l-2.469 4.871 2.732 1.415 4.608-8.788a6.316 6.316 0 0 0 .56-1.448 6.493 6.493 0 0 0 .2-1.58 5.2 5.2 0 0 0-.395-2.008 5.7 5.7 0 0 0-1.119-1.614zm-2.3 5.53a2.431 2.431 0 0 1-1.646.658 2.134 2.134 0 0 1-1.58-.625 2.259 2.259 0 0 1-.625-1.679 2.34 2.34 0 0 1 .625-1.646 2.071 2.071 0 0 1 1.58-.691 2.257 2.257 0 0 1 1.712.691 2.371 2.371 0 0 1 .658 1.646 2.081 2.081 0 0 1-.728 1.646z"/><path data-name="Path 17" d="M98.483 40.157a4.687 4.687 0 0 0-1.119-1.712 4.763 4.763 0 0 0-1.712-1.152 5.226 5.226 0 0 0-2.172-.428h-5.168v3.094h5.1a2.209 2.209 0 0 1 1.086.23 2.173 2.173 0 0 1 1.185 1.317 2.391 2.391 0 0 1 .132.823 2.091 2.091 0 0 1-.691 1.679 2.541 2.541 0 0 1-1.712.625h-5.1v3.094h5.2a5.244 5.244 0 0 0 2.041-.4 5.31 5.31 0 0 0 1.712-1.119 5.974 5.974 0 0 0 1.185-1.679 5.227 5.227 0 0 0 .428-2.172 5.849 5.849 0 0 0-.395-2.2z"/></g><g data-name="Group 16"><g data-name="Group 10"><path data-name="Path 18" d="M122.577 35.285a1.8 1.8 0 0 0 1.218-.56 1.773 1.773 0 0 0 .592-1.35 1.719 1.719 0 0 0-.527-1.251 1.866 1.866 0 0 0-2.666 0 1.824 1.824 0 0 0-.494 1.251 1.864 1.864 0 0 0 .56 1.35 1.63 1.63 0 0 0 1.317.56z" fill="#fff"/></g><g data-name="Group 11"><path data-name="Path 19" d="M118.594 35.285a1.8 1.8 0 0 0 1.218-.56 1.772 1.772 0 0 0 .592-1.35 1.719 1.719 0 0 0-.527-1.251 1.866 1.866 0 0 0-2.666 0 1.824 1.824 0 0 0-.494 1.251 1.864 1.864 0 0 0 .56 1.35 1.63 1.63 0 0 0 1.317.56z" fill="#fff"/></g><g data-name="Group 12"><path data-name="Path 20" d="M118.726 37.227a5.257 5.257 0 0 0-1.777 1.185 5.626 5.626 0 0 0-.987 6.221 4.954 4.954 0 0 0 1.35 1.712 6.179 6.179 0 0 0 1.909.987 8.358 8.358 0 0 0 2.238.329h1.679a2.425 2.425 0 0 1-.362 1.218 2.182 2.182 0 0 1-.691.658 2.41 2.41 0 0 1-.823.263c-.3.033-.527.066-.724.066h-3.95a5.8 5.8 0 0 1-2.172-.4 5.421 5.421 0 0 1-1.712-1.086 4.894 4.894 0 0 1-1.514-3.588 6.624 6.624 0 0 1 .362-1.942 4.107 4.107 0 0 1 1.251-1.843l-2.209-2.165a7.158 7.158 0 0 0-1.876 2.7 8.122 8.122 0 0 0-.625 3.193 8.591 8.591 0 0 0 .625 3.357 8.027 8.027 0 0 0 1.745 2.6 7.8 7.8 0 0 0 2.7 1.679 9.77 9.77 0 0 0 3.456.592h3.719a6.3 6.3 0 0 0 2.436-.428 4.882 4.882 0 0 0 1.81-1.152 5.276 5.276 0 0 0 1.152-1.679 6.907 6.907 0 0 0 .494-2.008V36.832h-5.136a5.616 5.616 0 0 0-2.368.395zm4.378 2.633v4.707h-2.041a2.628 2.628 0 0 1-1.843-.658 2.257 2.257 0 0 1-.691-1.712 2.212 2.212 0 0 1 .132-.79 2.044 2.044 0 0 1 .461-.757 2.147 2.147 0 0 1 .823-.56 3.392 3.392 0 0 1 1.251-.23z" fill="#fff"/></g><g data-name="Group 13"><path data-name="Path 21" d="M162.075 35.186a1.719 1.719 0 0 0 1.251-.527 1.7 1.7 0 0 0 .56-1.349 1.824 1.824 0 0 0-.494-1.251 1.738 1.738 0 0 0-1.317-.56 1.689 1.689 0 0 0-1.317.56 1.845 1.845 0 0 0-.494 1.284 1.737 1.737 0 0 0 .527 1.349 1.9 1.9 0 0 0 1.284.494z" fill="#fff"/></g><g data-name="Group 14"><path data-name="Path 22" d="M167.375 32.027a1.739 1.739 0 0 0-1.284-.527 1.76 1.76 0 0 0-1.35.56 1.912 1.912 0 0 0 .033 2.6 1.772 1.772 0 0 0 1.284.56 1.857 1.857 0 0 0 1.777-1.876 1.526 1.526 0 0 0-.46-1.317z" fill="#fff"/></g><g data-name="Group 15"><path data-name="Path 23" d="M162.865 42.235a2.237 2.237 0 0 1-.658 1.613 2.578 2.578 0 0 1-1.481.757h-2.074a5.374 5.374 0 0 0 .527-2.337v-5.563h-3.095v5.563a2.361 2.361 0 0 1-2.3 2.337h-1.09a3.07 3.07 0 0 0 .428-1.152 7.29 7.29 0 0 0 .1-1.218v-5.563h-3.098v5.563a2.173 2.173 0 0 1-.2.889 2.413 2.413 0 0 1-.527.757 2.86 2.86 0 0 1-.757.527 2.144 2.144 0 0 1-.856.2h-1.086a3.674 3.674 0 0 0 .4-1.152 7.29 7.29 0 0 0 .1-1.218v-5.563h-3.094v5.56a2.027 2.027 0 0 1-.2.856 3 3 0 0 1-.494.757 2.088 2.088 0 0 1-.757.527 2.209 2.209 0 0 1-.922.2h-2.207a6.9 6.9 0 0 0 .428-1.152 5.685 5.685 0 0 0 .165-1.382 5.038 5.038 0 0 0-.395-1.975 5.12 5.12 0 0 0-1.086-1.646 5.628 5.628 0 0 0-1.679-1.152 5.18 5.18 0 0 0-2.14-.428 5.644 5.644 0 0 0-2.3.428 5.452 5.452 0 0 0-1.745 1.185 5.574 5.574 0 0 0-1.086 1.745 6.435 6.435 0 0 0-.362 2.107 4.532 4.532 0 0 0 .428 2.041 5.064 5.064 0 0 0 1.119 1.613 5.459 5.459 0 0 0 1.613 1.119 6.587 6.587 0 0 0 1.942.56l-2.4 4.707 2.732 1.415 3.226-6.122h3.818a5.272 5.272 0 0 0 3.818-1.58v1.58h2.172a5.146 5.146 0 0 0 3.851-1.613v1.613h2.172a5.18 5.18 0 0 0 2.14-.428 5.6 5.6 0 0 0 1.712-1.152v1.58h3.094a4.8 4.8 0 0 0 1.876-.4 5.174 5.174 0 0 0 1.679-1.119 6.455 6.455 0 0 0 1.218-1.712 5.4 5.4 0 0 0 .461-2.205v-5.567h-3.094v5.6zm-25.9.461a5.442 5.442 0 0 1-.23.658 6.131 6.131 0 0 1-.625 1.218h-1.119a2.631 2.631 0 0 1-1.909-.658 2.282 2.282 0 0 1-.658-1.679 2.233 2.233 0 0 1 .691-1.745 2.3 2.3 0 0 1 1.514-.625 2.477 2.477 0 0 1 1.679.625 2.13 2.13 0 0 1 .724 1.777 2.271 2.271 0 0 1-.072.424z" fill="#fff"/></g></g></g></svg>