<svg xmlns="http://www.w3.org/2000/svg" width="91.654" height="64.419" viewBox="0 0 91.654 64.419"><g data-name="Group 54" fill="#08c6f2"><path data-name="Path 55" d="M0 5.703c.131-.515.241-1.036.4-1.543A5.766 5.766 0 0 1 5.859.025C9.769-.006 13.68.011 17.59.011q33.805 0 67.61-.012c2.642 0 4.667.99 5.793 3.394a7.4 7.4 0 0 1 .633 3.021c.045 9.88.029 19.761.026 29.641 0 1.537-.495 2.025-2.031 2.025q-43.745 0-87.49.021A2.062 2.062 0 0 1 0 36.871zm4.562-2.447a3.215 3.215 0 0 0-1.6 3.11q.019 13.967 0 27.935c0 .594.01 1.022.825 1.011.768-.011.881-.371.877-1-.016-2.238-.031-4.477.006-6.715a3.692 3.692 0 0 1 4.014-3.926h74.313a5.254 5.254 0 0 1 .892.044 3.62 3.62 0 0 1 3.143 3.574c.056 2.357.041 4.715.022 7.072-.005.682.215.937.929.947.863.012.772-.51.772-1.057V6.496a5.766 5.766 0 0 0-.043-1.072A2.682 2.682 0 0 0 87.135 3.3c-.029.5-.06.878-.069 1.253-.064 2.556-1.479 3.984-4.025 3.985q-37.156.009-74.313 0c-2.6 0-4.006-1.424-4.067-4.035-.017-.369-.061-.738-.099-1.247zm41.29-.453H8.076c-1.776 0-1.792.018-1.643 1.8 0 .06.006.119.015.178A1.967 1.967 0 0 0 8.4 6.724a9.242 9.242 0 0 0 1.161.042h72.954c2.072 0 2.763-.69 2.769-2.71 0-1.25 0-1.252-1.3-1.252zm-.027 28.927h38.062c1.428 0 1.647-.244 1.368-1.67a.914.914 0 0 0-.552-.526 2.827 2.827 0 0 0-.888-.03H7.87a5.179 5.179 0 0 0-.893.022.733.733 0 0 0-.485.3 1.23 1.23 0 0 0 1.181 1.9zm39.371-4.07c-.124-1.607-.741-2.132-2.372-2.132H8.877c-.209 0-.419-.008-.626.011a1.767 1.767 0 0 0-1.658 2.121zm-39.335 5.928H7.807a2.448 2.448 0 0 0-.8.022c-.221.081-.51.3-.551.5-.2.979.017 1.179 1.16 1.179h76.466c.149 0 .3-.011.448 0 .524.038.723-.187.768-.724.068-.815-.259-.993-1.026-.992q-19.205.032-38.411.015z"/><path data-name="Path 56" d="M35.732 63.593c.158-.428.242-.714.365-.982a8.7 8.7 0 0 0-.116-8 11.3 11.3 0 0 1-.811-9.152 9.67 9.67 0 0 1 .572-1.308c.256-.5.588-.962 1.25-.659s.649.813.416 1.429a21.245 21.245 0 0 0-.909 2.786 7.852 7.852 0 0 0 .8 5.373 10.7 10.7 0 0 1 1.466 6.343 22.941 22.941 0 0 1-1.287 4.417c-.1.27-.717.493-1.083.476-.24-.012-.463-.489-.663-.723z"/><path data-name="Path 57" d="M46.815 44.19c-.148.416-.214.676-.328.913a8.928 8.928 0 0 0 .151 8.328 10.823 10.823 0 0 1 .244 10.049c-.051.108-.1.215-.16.319-.277.511-.689.78-1.249.511s-.55-.779-.385-1.311a27.705 27.705 0 0 0 .981-3.313 8.053 8.053 0 0 0-.991-5.256 10.1 10.1 0 0 1-1.285-6.286 21.826 21.826 0 0 1 1.247-4.151 1.163 1.163 0 0 1 .974-.527c.301.033.554.479.801.724z"/><path data-name="Path 58" d="M55.994 44.221c-.181.47-.283.78-.416 1.076a8.521 8.521 0 0 0 .051 7.673 11.713 11.713 0 0 1 1.265 8.113 15.8 15.8 0 0 1-.975 2.671.911.911 0 1 1-1.624-.782c1.606-3.141 1.229-6.16-.325-9.236a10.093 10.093 0 0 1 .177-9.612 1.519 1.519 0 0 1 1.091-.65c.24-.016.514.497.756.747z"/><path data-name="Path 59" d="M45.766 21.44h-4.3c-.594 0-1.093-.141-1.112-.861s.471-.9 1.067-.906q4.432-.01 8.865 0c.6 0 1.085.185 1.067.906s-.518.86-1.112.86z"/><path data-name="Path 60" d="M76.059 19.573c.767.144 1.19.425 1.065.986a1.307 1.307 0 0 1-.8.825.679.679 0 0 1-.856-.828c.053-.349.381-.657.591-.983z"/><path data-name="Path 61" d="M79.936 20.383c.313-.227.6-.581.945-.652.541-.112.913.225.919.81s-.332.945-.885.852c-.348-.058-.648-.4-.97-.614z"/></g></svg>