<svg xmlns="http://www.w3.org/2000/svg" width="33.246" height="34" viewBox="0 0 33.246 34"><g data-name="Group 200" fill="#fff"><path data-name="Path 183" d="M12.011 18.758a.771.771 0 0 0-.772-.771H8.546a.771.771 0 0 0-.771.771v2.693a.771.771 0 0 0 .771.772h2.694a.771.771 0 0 0 .772-.772v-2.693z"/><path data-name="Path 184" d="M18.741 18.758a.771.771 0 0 0-.771-.771h-2.693a.771.771 0 0 0-.771.771v2.693a.771.771 0 0 0 .771.772h2.693a.771.771 0 0 0 .771-.772z"/><path data-name="Path 185" d="M25.471 18.758a.771.771 0 0 0-.771-.771h-2.693a.771.771 0 0 0-.772.771v2.693a.771.771 0 0 0 .772.772H24.7a.771.771 0 0 0 .771-.772z"/><path data-name="Path 186" d="M12.011 25.488a.771.771 0 0 0-.772-.771H8.546a.771.771 0 0 0-.771.771v2.692a.771.771 0 0 0 .771.771h2.694a.771.771 0 0 0 .772-.771v-2.692z"/><path data-name="Path 187" d="M18.741 25.488a.771.771 0 0 0-.771-.771h-2.693a.771.771 0 0 0-.771.771v2.692a.771.771 0 0 0 .771.771h2.693a.771.771 0 0 0 .771-.771z"/><path data-name="Path 188" d="M25.471 25.488a.771.771 0 0 0-.771-.771h-2.693a.771.771 0 0 0-.772.771v2.692a.771.771 0 0 0 .772.771H24.7a.771.771 0 0 0 .771-.771v-2.692z"/><path data-name="Path 189" d="M30.289 3.786v4.113a3.359 3.359 0 0 1-3.367 3.357h-2.126a3.376 3.376 0 0 1-3.387-3.357V3.771h-9.572v4.128a3.376 3.376 0 0 1-3.387 3.357H6.326a3.359 3.359 0 0 1-3.367-3.357V3.786A3.061 3.061 0 0 0 0 6.829v24.1a3.063 3.063 0 0 0 3.048 3.066h27.151a3.066 3.066 0 0 0 3.048-3.066v-24.1a3.061 3.061 0 0 0-2.958-3.043zM29.3 29.429a1.318 1.318 0 0 1-1.318 1.318H5.205a1.318 1.318 0 0 1-1.316-1.318V16.983a1.318 1.318 0 0 1 1.318-1.318h22.776a1.318 1.318 0 0 1 1.318 1.318v12.446z"/><path data-name="Path 190" d="M6.314 9.051h2.1A1.154 1.154 0 0 0 9.574 7.9V1.154A1.154 1.154 0 0 0 8.419 0H6.314a1.154 1.154 0 0 0-1.15 1.154V7.9a1.154 1.154 0 0 0 1.15 1.151z"/><path data-name="Path 191" d="M24.77 9.051h2.1A1.154 1.154 0 0 0 28.025 7.9V1.154A1.154 1.154 0 0 0 26.87 0h-2.1a1.154 1.154 0 0 0-1.155 1.154V7.9a1.154 1.154 0 0 0 1.155 1.151z"/></g></svg>