<svg xmlns="http://www.w3.org/2000/svg" width="35.08" height="35" viewBox="0 0 35.08 35"><g data-name="Group 135"><g data-name="Group 134"><path data-name="Path 117" d="M34.293 27.683l-5.417-5.418a2.825 2.825 0 0 0-3.983.075l-2.729 2.729-.539-.3a27.161 27.161 0 0 1-6.565-4.748 27.312 27.312 0 0 1-4.76-6.577c-.1-.183-.2-.359-.294-.526l1.832-1.829.9-.9a2.822 2.822 0 0 0 .075-3.983L7.4.786a2.822 2.822 0 0 0-3.983.075L1.886 2.396l.042.041A8.829 8.829 0 0 0 .67 4.657a9.2 9.2 0 0 0-.56 2.249C-.6 12.838 2.1 18.258 9.46 25.613c10.166 10.166 18.359 9.4 18.712 9.36a9.154 9.154 0 0 0 2.257-.567 8.8 8.8 0 0 0 2.211-1.253l.033.03 1.547-1.515a2.827 2.827 0 0 0 .073-3.985z" fill="#fff"/></g></g></svg>