<svg xmlns="http://www.w3.org/2000/svg" width="91.484" height="98.829" viewBox="0 0 91.484 98.829"><g data-name="Group 52" fill="#fff"><path data-name="Path 48" d="M74.063 0c2.265.511 3.7 2.182 5.232 3.726 3.4 3.422 6.822 6.824 10.23 10.24a5.491 5.491 0 0 1 .99 7.337 4.44 4.44 0 0 0-.242.417 12.243 12.243 0 0 1-7.1 6.81c-.766.3-1.172.747-.9 1.606a1.98 1.98 0 0 1 .023.288c.576 3.786-.77 6.471-4.479 7.785a1.6 1.6 0 0 0-1.17 2.128 10.23 10.23 0 0 1 .054 2.789 4.632 4.632 0 0 1-2.375 3.755 22.828 22.828 0 0 1-2.555 1.349 1.251 1.251 0 0 0-.794 1.527 23.952 23.952 0 0 1 .136 2.6 4.806 4.806 0 0 1-2.558 4.443c-.859.5-1.784.895-2.623 1.424a1.351 1.351 0 0 0-.555.953c-.022 1.025.133 2.053.127 3.079a4.741 4.741 0 0 1-2.39 4.247c-.877.533-1.8.991-2.723 1.444a1.041 1.041 0 0 0-.661 1.137 15.485 15.485 0 0 1 .067 3.067 4.836 4.836 0 0 1-3.843 4.205 493.22 493.22 0 0 1-7.436 1.974 1.371 1.371 0 0 0-1.22 1.212 11.422 11.422 0 0 1-3.033 5.82c-2.1 2.17-4.252 4.3-6.4 6.428-.767.761-1.507.788-2.106.15a1.3 1.3 0 0 1 .211-2.031 3.957 3.957 0 0 0 1.3-3.345 20.5 20.5 0 0 0-.847-6.422L22.664 93.897a5.918 5.918 0 0 0 8.463.776c1.1-.977 1.887-1.059 2.474-.34s.321 1.555-.775 2.42a8.472 8.472 0 0 1-4.273 1.855 2.986 2.986 0 0 0-.624.221h-1.351c-.431-.106-.861-.214-1.292-.317a9.1 9.1 0 0 1-4.4-2.453C14.814 89.985 8.72 83.931 2.674 77.831a8.75 8.75 0 0 1-.1-12.491c3.539-3.648 7.164-7.212 10.78-10.783a12.781 12.781 0 0 1 5.883-3.144 3.351 3.351 0 0 0 1.444-.824Q39.266 32.051 57.817 13.48a10.448 10.448 0 0 1 .765-.735 1.234 1.234 0 0 1 1.817.055 1.3 1.3 0 0 1 .042 1.836 9.177 9.177 0 0 1-.8.833l-34.8 34.8c-.286.286-.55.6-.931 1.012l6.421 1.838c2.466.706 4.928 1.426 7.4 2.115a7.821 7.821 0 0 1 5.81 5.844c1.274 4.671 2.575 9.335 3.869 14a7.063 7.063 0 0 0 .287.7c2.724-.746 5.42-1.436 8.082-2.24a1.94 1.94 0 0 0 1.361-2.021c-.021-1.124-.036-2.253-.151-3.37a1.806 1.806 0 0 1 1.076-2.036c1.095-.539 2.162-1.133 3.253-1.68a2.522 2.522 0 0 0 1.486-2.75 25.587 25.587 0 0 1-.164-3.848 2.139 2.139 0 0 1 .92-1.415c1.075-.694 2.263-1.211 3.4-1.818a2.554 2.554 0 0 0 1.481-2.854c-.1-1.249-.123-2.5-.176-3.756a1.439 1.439 0 0 1 .92-1.44c1.122-.557 2.215-1.171 3.339-1.723a2.642 2.642 0 0 0 1.554-2.828c-.087-1.218-.113-2.44-.193-3.658a1.536 1.536 0 0 1 .94-1.625c1.093-.542 2.154-1.15 3.255-1.676a2.67 2.67 0 0 0 1.613-2.888c-.087-1.153-.089-2.314-.2-3.465a1.718 1.718 0 0 1 1.141-1.889c1.159-.552 2.278-1.19 3.426-1.766a6.079 6.079 0 0 0 2.676-2.555c.543-.985 1.136-1.943 1.662-2.936a2.568 2.568 0 0 0-.474-3.346Q81.7 9.931 75.437 3.706a2.654 2.654 0 0 0-4.092.068c-2.019 1.984-4.008 4-6.011 6a4.6 4.6 0 0 1-.635.589 1.3 1.3 0 0 1-1.762-.1 1.243 1.243 0 0 1-.058-1.819 7.362 7.362 0 0 1 .532-.559c1.455-1.457 2.925-2.9 4.363-4.372 1.481-1.518 2.906-3.1 5.138-3.519zM40.287 85.806c.674-.774 1.2-1.417 1.769-2.025a9.657 9.657 0 0 0 2.448-9.694c-1.156-4.168-2.4-8.313-3.61-12.466a5.213 5.213 0 0 0-3.78-3.756q-6.187-1.79-12.371-3.589a9.837 9.837 0 0 0-5.411-.077 12.139 12.139 0 0 0-6.127 4.423 44.742 44.742 0 0 1 4.851.81c3.082.86 6.113 1.9 9.171 2.852 1.591.494 3.2.929 4.79 1.424a4.391 4.391 0 0 1 3.026 2.989c1.294 4.058 2.64 8.1 3.816 12.194.612 2.139.912 4.368 1.428 6.915zm-5.294-9.194a7.788 7.788 0 0 0-.121-.924q-1.143-3.975-2.3-7.945a2.233 2.233 0 0 0-1.664-1.58q-3.838-1.095-7.668-2.215a2.137 2.137 0 0 0-2.3.54c-1.517 1.53-3.033 3.062-4.578 4.564a.884.884 0 0 0-.193 1.177 23.892 23.892 0 0 0 12.417 12.358 1.191 1.191 0 0 0 1.059-.16q2.375-2.261 4.645-4.631a5.271 5.271 0 0 0 .703-1.185zM20.351 91.533l6.608-6.707a26.163 26.163 0 0 1-12.988-12.929l-6.607 6.636zm-1.38-28.972a17.319 17.319 0 0 0-8.459-.879 2.406 2.406 0 0 0-1.052.586 268.829 268.829 0 0 0-4.986 4.975c-2.546 2.614-2.579 5.669-.176 8.431.551.633.9.772 1.575.085 4.106-4.172 8.263-8.294 12.4-12.436.226-.222.428-.463.698-.762z"/><path data-name="Path 49" d="M75.843 11.804a4.888 4.888 0 0 1 4.906 4.893 4.973 4.973 0 0 1-4.983 4.86 4.841 4.841 0 0 1-4.794-4.886 4.745 4.745 0 0 1 4.871-4.867zm.018 7a2.1 2.1 0 0 0 2.124-2.219 2.2 2.2 0 0 0-2.152-2.141 2.276 2.276 0 0 0-2.2 2.217 2.172 2.172 0 0 0 2.228 2.147z"/><path data-name="Path 50" d="M56.642 37.762a3.948 3.948 0 0 1-4.514 3.864 1.39 1.39 0 0 1-1.319-1.4 1.365 1.365 0 0 1 1.5-1.3c1.191-.015 1.611-.385 1.667-1.469.055-1.053.546-1.676 1.315-1.666.784.01 1.317.676 1.346 1.686.007.092.005.189.005.285z"/><path data-name="Path 51" d="M62.693 32.189a5.433 5.433 0 0 1-1.046-.552 22.593 22.593 0 0 1-1.637-1.627 1.284 1.284 0 0 1-.037-1.9 1.211 1.211 0 0 1 1.874-.031 12.693 12.693 0 0 1 1.794 1.867 1.7 1.7 0 0 1 .091 1.395c-.143.362-.668.565-1.039.848z"/><path data-name="Path 52" d="M47.088 47.85c-.182.229-.4.728-.759.889a1.534 1.534 0 0 1-1.313-.062 14.985 14.985 0 0 1-2.055-2.016 1.029 1.029 0 0 1 .067-1.552c.4-.3 1.227-.578 1.51-.374a18.448 18.448 0 0 1 2.4 2.314c.113.114.078.368.15.801z"/></g></svg>