<svg xmlns="http://www.w3.org/2000/svg" width="70.11" height="75.143" viewBox="0 0 70.11 75.143"><g data-name="Group 50" fill="#08c6f2"><path data-name="Path 41" d="M44.6 75.144c-.423-.1-.845-.209-1.27-.3a6.677 6.677 0 0 1-3.253-1.745 1.765 1.765 0 0 0-1.366-.513q-13.949.018-27.9.008c-1.574 0-1.839-.175-2.054-1.713-.451-3.214-.849-6.435-1.267-9.654q-.636-4.9-1.269-9.8-.618-4.793-1.23-9.586c-.313-2.445-.644-4.888-.925-7.337-.076-.662-.362-.865-.99-.809a15.942 15.942 0 0 1-1.614.008C.517 33.69.049 33.284.027 32.331a100.069 100.069 0 0 1 0-4.551c.019-.966.441-1.384 1.408-1.406q2.055-.049 4.111-.005c.611.014.787-.2.782-.806-.028-2.912 0-5.825-.025-8.736a2.641 2.641 0 0 1 .646-1.8 207.413 207.413 0 0 0 3.939-4.932 2.124 2.124 0 0 0 .409-1.185c.037-2.422.015-4.845.02-7.268 0-1.155.447-1.617 1.587-1.622q3.377-.015 6.754 0c1.093.006 1.546.479 1.549 1.585.006 2.447-.015 4.895.019 7.341a2 2 0 0 0 .387 1.119q1.928 2.5 3.94 4.931a2.723 2.723 0 0 1 .668 1.869c-.032 2.838-.013 5.677-.013 8.516v.961c.819 0 1.551.042 2.271-.032.16-.017.392-.44.4-.68.035-1.688.045-3.377.008-5.065a2.206 2.206 0 0 1 .743-1.814c.81-.745 1.548-1.567 2.351-2.32a1.738 1.738 0 0 0 .646-1.53 14.01 14.01 0 0 1-.006-1.907c.021-.457-.167-.6-.6-.588-.611.023-1.224.017-1.835 0a1.15 1.15 0 0 1-1.271-1.273C28.784 5.684 33.39.442 38.815.175c4.516-.222 9.048-.13 13.574-.151a1.276 1.276 0 0 1 1.416 1.424q.039 2.275 0 4.551c-.017.962-.508 1.4-1.494 1.407-1.224.009-2.449.037-3.671-.008-.977-.036-1.44.729-2.067 1.229-.085.068.013.453.111.651.917 1.865 1.852 3.72 2.78 5.579.12.239.233.482.392.81l-2.09 1.043-3.258-6.481c-.671.539-1.276 1.016-1.867 1.509-.079.066-.1.216-.121.331a1.414 1.414 0 0 0-.008.293c.006 1.1-.279 2.319.1 3.27s1.416 1.633 2.184 2.415c1.1 1.117 2.2 2.229 3.326 3.319a2.119 2.119 0 0 1 .681 1.633c-.009.906.021 1.812-.011 2.716-.017.481.158.652.627.647 1.272-.015 2.545-.006 3.818 0 1.487.006 1.775.291 1.777 1.744 0 1.419.009 2.839 0 4.258-.009.925-.42 1.324-1.352 1.339-.636.011-1.273.025-1.908 0-.467-.021-.653.176-.708.623-.334 2.688-.686 5.374-1.029 8.061-.417 3.268-.814 6.539-1.261 9.8-.072.521.087.692.535.821a13.975 13.975 0 0 1 1.792.631 6.354 6.354 0 0 0 5.593-.027 11.965 11.965 0 0 1 7.253-.78 7.214 7.214 0 0 1 6.147 7.25c.1 2.856.044 5.726-.114 8.58a7.364 7.364 0 0 1-6.072 6.3 7.3 7.3 0 0 0-.772.187h-2.954c-1.573-.492-3.125-1.077-4.728-1.442a6.816 6.816 0 0 0-2.884-.041c-1.7.372-3.348.976-5.018 1.483zm-9.6-29.4v.96c0 3.084.011 6.168 0 9.251a5.032 5.032 0 0 1-5.343 5.334c-3.916 0-7.832.01-11.748-.009a6.724 6.724 0 0 1-1.735-.222 4.815 4.815 0 0 1-3.571-5.014c-.012-5.483 0-10.965 0-16.447 0-1.689-.023-3.378.011-5.066.013-.627-.164-.875-.827-.849-1.2.047-2.4.013-3.6.013h-1.77a7.833 7.833 0 0 0 0 .9c.466 3.582.95 7.161 1.412 10.743.515 3.995 1 7.992 1.518 11.987s1.068 7.983 1.55 11.981c.082.678.258.9.961.9q12.666-.035 25.332-.015h.839a10.939 10.939 0 0 1-.287-1.607c-.065-2.811-.173-5.625-.114-8.434a7.482 7.482 0 0 1 7.971-7.464c.443.016.744-.068.8-.607.114-1.117.284-2.227.426-3.341.611-4.794 1.212-9.589 1.842-14.381.065-.493-.029-.669-.533-.668q-6.278.014-12.556 0c-.453 0-.6.171-.583.607a10.41 10.41 0 0 1-.006 1.614 1.173 1.173 0 0 0 .811 1.339c2.009.953 4 1.952 5.969 2.979a3.943 3.943 0 0 1 2.079 4.746 3.9 3.9 0 0 1-5.54 2.4c-1.055-.485-2.09-1.028-3.303-1.628zm-5.01 13.152a5.459 5.459 0 0 0 .792-.105 2.516 2.516 0 0 0 1.817-2.543c.006-3.965 0-7.929 0-11.894 0-1.548.792-2.046 2.165-1.364 1.488.739 2.965 1.5 4.463 2.22a1.586 1.586 0 0 0 2.4-1.158 1.715 1.715 0 0 0-1.159-1.834 736.309 736.309 0 0 0-6.889-3.437 1.614 1.614 0 0 1-.994-1.627c.023-2.5.009-4.993.008-7.489 0-.966 0-.968-.94-.968H15.954c-1.044 0-1.046 0-1.046 1.034v25.624c0 .318-.011.637.008.954a2.619 2.619 0 0 0 1.767 2.459c.766.266.921.167.922-.628 0-2.986-.012-5.972.008-8.957.012-1.71-.318-1.46 1.508-1.523.68-.023.811.245.805.857-.027 2.814-.012 5.629-.012 8.443 0 1.97 0 1.945 1.969 1.954.6 0 .739-.2.735-.761q-.033-4.552-.005-9.1c.008-1.535-.288-1.328 1.419-1.389.71-.025.92.2.912.912-.034 3.108-.016 6.216-.012 9.324 0 .311.039.622.062.956h2.614v-9.643c0-1.551 0-1.514 1.555-1.551.713-.017.848.258.843.9-.027 3.132-.012 6.265-.012 9.4zm31.378 6.293c.539 0 .956.017 1.371 0a5.135 5.135 0 0 0 4.93-4.492 4.976 4.976 0 0 0-3.771-5.467 9.726 9.726 0 0 0-6.378.569 8.32 8.32 0 0 1-7.232.042 10.554 10.554 0 0 0-5.946-.725 5.038 5.038 0 0 0-4.325 4.507 4.947 4.947 0 0 0 3.534 5.282 9.752 9.752 0 0 0 6.656-.506 8.453 8.453 0 0 1 7.238-.02 7.941 7.941 0 0 0 3.927.812zM16.309 17.401c-2.3 0-4.6.018-6.9-.012-.589-.008-.763.206-.76.761q.025 3.744 0 7.488c0 .543.187.72.724.719q6.864-.022 13.728 0c.566 0 .768-.182.762-.756q-.034-3.707 0-7.415c.006-.6-.183-.807-.8-.8-2.247.036-4.499.017-6.75.017zm23.707 48.414c0 .742-.045 1.516.009 2.284a4.853 4.853 0 0 0 3.39 4.28 10 10 0 0 0 6.863-.491 7.961 7.961 0 0 1 6.684-.166 13.265 13.265 0 0 0 5.484.991c3.286 0 5.982-2.761 5.118-6.985a2.831 2.831 0 0 0-.376.212 7.319 7.319 0 0 1-4.473 1.58 11.861 11.861 0 0 1-5.671-.765 7.131 7.131 0 0 0-6.418 0 11.571 11.571 0 0 1-7.537.456 17.012 17.012 0 0 1-3.069-1.393zm6.386-39.53c0-.9.048-1.758-.021-2.6a2.024 2.024 0 0 0-.465-1.142c-1-1.075-2.168-2.006-3.075-3.148a4.935 4.935 0 0 0-4.882-2.015c-1.2.158-2.578-.256-3.616.19-1.069.459-1.845 1.63-2.7 2.536a1.687 1.687 0 0 0-.424 1.014c-.047 1.418-.021 2.838-.019 4.258 0 .966 0 .973.965.973h13.29c.292-.002.581-.038.951-.063zm-.006-23.884h-6.081a8.71 8.71 0 0 0-7.86 4.381 6.531 6.531 0 0 0-1.089 3.193 1.809 1.809 0 0 0 .348.084c2.933.007 5.866.018 8.8 0a1.419 1.419 0 0 0 .778-.335q2.366-1.854 4.7-3.749a.966.966 0 0 0 .387-.571c.043-.968.022-1.939.022-3zm-11.4 26.294v1.046c0 1.641 0 1.641 1.606 1.641 4.772 0 9.544.009 14.316 0 2.075-.006 1.711.277 1.785-1.8.026-.719-.219-.9-.917-.9-5.311.026-10.621.015-15.932.015zm-12.6-13.665a2.042 2.042 0 0 0-.174-.391c-.836-1.052-1.661-2.114-2.534-3.133a1.213 1.213 0 0 0-.819-.338c-1.735-.03-3.47-.041-5.2.006a1.5 1.5 0 0 0-.972.477c-.8.918-1.544 1.892-2.3 2.851a4.064 4.064 0 0 0-.293.528zm-3.641-6.233V2.458h-5.053c0 2.01-.008 3.964.016 5.917 0 .142.231.4.359.4 1.541.034 3.077.024 4.687.024zm-11.236 19.9h-3.3c-1.831 0-1.794 0-1.837 1.849-.017.716.254.855.888.849 2.467-.026 4.935.009 7.4-.016 2.246-.023 1.877.4 1.925-2.011.01-.5-.172-.688-.683-.679-1.456.026-2.922.01-4.388.009zm30.028-16.295h-.583c-2.082 0-2.072 0-1.972 2.131.019.407.152.57.556.564.852-.012 1.7 0 2.557 0 2.107 0 2.107 0 2-2.108a.534.534 0 0 1 0-.073c.033-.376-.143-.523-.515-.515-.674.013-1.356.003-2.038.003zm11.285-9.961v2.52h2.508v-2.52z"/><path data-name="Path 42" d="M58.746 61.27h-2.333c0-.69-.019-1.362.018-2.032.006-.118.24-.312.377-.319.628-.034 1.258-.015 1.939-.015z"/><path data-name="Path 43" d="M48.948 60v-2.3h1.989c.024 0 .056-.005.071.008.614.521.175 1.211.262 1.815.019.133-.277.435-.447.451-.598.061-1.205.026-1.875.026z"/><path data-name="Path 44" d="M43.951 61.29v-2.386a11.527 11.527 0 0 1 1.851.019c.848.142.375.869.42 1.321.035.347.313.968-.4 1.035-.603.056-1.213.011-1.871.011z"/><path data-name="Path 45" d="M63.753 57.702v2.289c-.665 0-1.29.02-1.911-.017a.514.514 0 0 1-.356-.348 8.579 8.579 0 0 1 0-1.526.569.569 0 0 1 .4-.381c.593-.042 1.197-.017 1.867-.017z"/></g></svg>