<svg xmlns="http://www.w3.org/2000/svg" width="33.501" height="33.5" viewBox="0 0 33.501 33.5"><g fill="#fff"><path data-name="Path 180" d="M10.187 20.349H8.032v-3.336A4 4 0 0 0 6.9 14.219a4.445 4.445 0 1 0-5.369-.354A4.009 4.009 0 0 0 0 17.013v9.936h6.552V33.5h6.6V23.313a2.968 2.968 0 0 0-2.965-2.965zm0 0"/><path data-name="Path 181" d="M31.973 13.864a4.443 4.443 0 1 0-5.369.354 4 4 0 0 0-1.135 2.794v3.336h-2.155a2.968 2.968 0 0 0-2.965 2.965V33.5h6.6v-6.551H33.5v-9.936a4.009 4.009 0 0 0-1.527-3.148zm0 0"/><path data-name="Path 182" d="M23.032 7.96V2.77A2.773 2.773 0 0 0 20.262 0h-7.023a2.773 2.773 0 0 0-2.77 2.77v5.19a2.773 2.773 0 0 0 2.77 2.77h1.189l2.323 4.023 2.318-4.023h1.189a2.773 2.773 0 0 0 2.77-2.77zm0 0"/></g></svg>