<svg xmlns="http://www.w3.org/2000/svg" width="57.111" height="73.143" viewBox="0 0 57.111 73.143"><g data-name="Group 149"><g data-name="Group 148"><path data-name="Path 125" d="M21.684 22.903a1.071 1.071 0 0 0-1.071 1.071v1.145a1.071 1.071 0 0 0 2.143 0v-1.145a1.072 1.072 0 0 0-1.072-1.071z" fill="#fff"/></g></g><g data-name="Group 151"><g data-name="Group 150"><path data-name="Path 126" d="M35.426 22.903a1.071 1.071 0 0 0-1.071 1.071v1.145a1.071 1.071 0 0 0 2.143 0v-1.145a1.071 1.071 0 0 0-1.072-1.071z" fill="#fff"/></g></g><g data-name="Group 153"><g data-name="Group 152"><path data-name="Path 127" d="M32.753 31.238a1.071 1.071 0 0 0-1.515-.01 4.722 4.722 0 0 1-5.366 0 1.071 1.071 0 1 0-1.505 1.525 6.759 6.759 0 0 0 8.376 0 1.071 1.071 0 0 0 .01-1.515z" fill="#fff"/></g></g><g data-name="Group 155"><g data-name="Group 154"><path data-name="Path 128" d="M22.83 19.468h-2.29a1.071 1.071 0 0 0 0 2.143h2.29a1.071 1.071 0 1 0 0-2.143z" fill="#fff"/></g></g><g data-name="Group 157"><g data-name="Group 156"><path data-name="Path 129" d="M36.572 19.468h-2.29a1.071 1.071 0 1 0 0 2.143h2.29a1.071 1.071 0 1 0 0-2.143z" fill="#fff"/></g></g><g data-name="Group 159"><g data-name="Group 158"><path data-name="Path 130" d="M51.502 51.034l-7.723-2.374a2.457 2.457 0 0 0-1.361-2.347l-4.776-2.388V40.52a15.982 15.982 0 0 0 6.717-10.893h.637a4.06 4.06 0 0 0 4.078-3.533 3.928 3.928 0 0 0-2.27-3.974V10.233a7.951 7.951 0 0 0-7.942-7.943h-.181A13.507 13.507 0 0 0 30.774 0a27.316 27.316 0 0 0-13.327 3.009 46.467 46.467 0 0 1-6.661 2.569 1.071 1.071 0 0 0-.688 1.442 9.721 9.721 0 0 0 1.746 2.539c-.533.656-1.543 2.335-1.543 5.636v6.973a3.908 3.908 0 0 0 1.644 7.459h.8a15.977 15.977 0 0 0 6.717 10.895v3.4l-4.776 2.388a2.457 2.457 0 0 0-1.361 2.347l-7.723 2.374a7.9 7.9 0 0 0-5.608 7.592v13.448a1.071 1.071 0 0 0 2.143 0V58.626a5.77 5.77 0 0 1 4.1-5.543l8.033-2.47 1.416 1.887-1.611 1.611a3.357 3.357 0 0 0-.63 3.881l3.067 6.134h-2.917V62.91a1.071 1.071 0 1 0-2.143 0v1.219H6.797A1.071 1.071 0 0 0 5.726 65.2v6.871a1.071 1.071 0 0 0 1.071 1.071h11.452a1.071 1.071 0 0 0 1.071-1.071v-2.332l1.406 2.811a1.072 1.072 0 0 0 1.917-.959l-7.278-14.555a1.217 1.217 0 0 1 .228-1.407l2.268-2.268a1.071 1.071 0 0 0 .1-1.4l-2.427-3.236a.331.331 0 0 1 .117-.494l4.22-2.11 2.979 10.214a1.071 1.071 0 1 0 2.057-.6l-.47-1.61a12.537 12.537 0 0 0 8.237 0l-4.118 14.12-2.312-7.928a1.071 1.071 0 1 0-2.057.6l3.341 11.454a1.071 1.071 0 0 0 2.057 0l7.657-26.251 4.22 2.11a.331.331 0 0 1 .117.494L39.15 51.96a1.072 1.072 0 0 0 .1 1.4l2.268 2.268a1.217 1.217 0 0 1 .228 1.407l-7.278 14.557a1.072 1.072 0 1 0 1.917.959l7.278-14.556a3.358 3.358 0 0 0-.63-3.881L41.422 52.5l1.418-1.89 8.033 2.47a5.77 5.77 0 0 1 4.1 5.543v13.448a1.071 1.071 0 1 0 2.143 0V58.626a7.9 7.9 0 0 0-5.614-7.592zM17.177 71H7.869v-4.729h3.583v.074a1.071 1.071 0 0 0 2.143 0v-.074h3.583zm1.154-66.04a25.236 25.236 0 0 1 12.443-2.817c3.953 0 7.485 1.654 8.216 3.848a1.072 1.072 0 1 0 2.033-.678 5.05 5.05 0 0 0-.218-.544 5.809 5.809 0 0 1 3.856 5.464v11.525h-1.219a1.22 1.22 0 0 1-1.219-1.219v-1.145a13.65 13.65 0 0 0-3.749-8.774 1.073 1.073 0 0 0-1.08-.264c-5.948 1.878-14.334 3.461-20.508.338a11.526 11.526 0 0 1-4.177-3.468 52.7 52.7 0 0 0 5.622-2.266zM35.5 44.434l-2.046 7.016a10.395 10.395 0 0 1-9.8 0l-2.047-7.017v-2.657a15.935 15.935 0 0 0 13.889 0zm-6.945-3.209A13.831 13.831 0 0 1 14.74 27.41a1.071 1.071 0 1 0-2.143 0v.074h-.646a1.792 1.792 0 0 1-1.782-1.98 1.9 1.9 0 0 1 1.946-1.6h1.554a3.366 3.366 0 0 0 3.362-3.362V16.5a1.072 1.072 0 0 0-2.145 0v4.044a1.22 1.22 0 0 1-1.219 1.219h-1.218v-6.568a7.222 7.222 0 0 1 .979-4.172 14.727 14.727 0 0 0 2.321 1.5 20 20 0 0 0 8.59 2.083 40.55 40.55 0 0 0 13.034-2 11.291 11.291 0 0 1 2.707 6.788v1.145a3.366 3.366 0 0 0 3.362 3.361h1.718a1.792 1.792 0 0 1 1.782 1.98 1.9 1.9 0 0 1-1.945 1.6h-.483v-.063a1.071 1.071 0 0 0-1.071-1.071 1.071 1.071 0 0 0-1.071 1.071 13.833 13.833 0 0 1-13.817 13.809z" fill="#fff"/></g></g><g data-name="Group 161"><g data-name="Group 160"><path data-name="Path 131" d="M50.313 64.701h-1.791V62.91a1.071 1.071 0 1 0-2.143 0v1.791h-1.791a1.071 1.071 0 1 0 0 2.143h1.792v1.791a1.071 1.071 0 1 0 2.143 0v-1.791h1.791a1.071 1.071 0 1 0 0-2.143z" fill="#fff"/></g></g></svg>