<svg xmlns="http://www.w3.org/2000/svg" width="46.36" height="30.374" viewBox="0 0 46.36 30.374"><path data-name="Path 27" d="M42.888 0H3.472A3.472 3.472 0 0 0 0 3.472v6.652h46.36V3.472A3.472 3.472 0 0 0 42.888 0z" fill="#ff4b55"/><path data-name="Path 28" d="M0 26.902a3.472 3.472 0 0 0 3.472 3.472h39.416a3.472 3.472 0 0 0 3.472-3.472v-6.653H0z" fill="#464655"/><path data-name="Rectangle 5" fill="#f5f5f5" d="M0 10.124h46.36v10.124H0z"/><path data-name="Path 29" d="M25.732 13.608a.581.581 0 0 0-.764-.551l-.707.236-.172-1.036a1.272 1.272 0 0 0-1.259-1.067h-.661l-.691.851h.915l-.256 1.265-.745-.248a.581.581 0 0 0-.764.551v4.3l1.029-1.029-.485 1.448h-.544v.851h5.1v-.851h-.544l-.485-1.454 1.029 1.029v-4.3zm-2.977 4.72h-.686l.472-1.259.214.274v.985zm.851 0v-.986l.214-.274.472 1.259zm-.425-1.542a3.127 3.127 0 0 1-1.263-2.552 2.01 2.01 0 0 0 1.263-.851 2.011 2.011 0 0 0 1.263.851 3.127 3.127 0 0 1-1.264 2.556z" fill="#f0c727"/></svg>