<svg xmlns="http://www.w3.org/2000/svg" width="102.465" height="157.311" viewBox="0 0 102.465 157.311"><path data-name="Path 192" d="M33.684 112.019v11.025a3.865 3.865 0 0 0 .836 2.4l14.528 18.359a2.582 2.582 0 0 0 4.033.02l14.841-18.37a3.877 3.877 0 0 0 .861-2.434v-10.752a38.092 38.092 0 0 1-35.1-.246zm0 0" fill="#f9cfcf"/><path data-name="Path 193" d="M48.463 135.228q-.842-.127-1.626-.311a17.713 17.713 0 0 1-9.824-6.317l-2.498-3.149a3.866 3.866 0 0 1-.74-1.59 26.847 26.847 0 0 0-18.788 10.216l-.048.064c-.146.188-.287.378-.427.569a22.886 22.886 0 0 0-.653.926c-.087.127-.173.256-.257.387q-.183.284-.362.571c-.084.137-.166.276-.248.415q-.168.286-.332.575c-.081.146-.159.294-.238.443-.1.192-.205.383-.3.577-.078.156-.153.315-.228.474-.091.19-.184.379-.27.572s-.163.379-.243.57c-.127.3-.251.611-.367.92-.081.212-.161.422-.237.637-.058.169-.112.34-.168.511-.068.207-.136.412-.2.621-.052.173-.1.347-.147.521-.058.211-.116.421-.17.634q-.064.261-.125.526c-.049.217-.1.435-.142.654-.035.173-.069.348-.1.522-.042.227-.079.455-.116.683-.026.17-.054.34-.077.512-.033.242-.061.484-.088.729-.016.161-.037.322-.052.483-.024.271-.042.545-.058.817-.009.137-.02.274-.026.411-.019.412-.03.826-.03 1.242v5.382h85.2v-5.382c0-.424-.011-.845-.03-1.263-.006-.142-.019-.284-.028-.425-.016-.275-.035-.55-.061-.822-.015-.17-.035-.338-.054-.508a24.76 24.76 0 0 0-.287-1.923c-.035-.19-.071-.381-.11-.571s-.088-.4-.135-.6-.092-.4-.144-.6c-.042-.163-.09-.323-.134-.484a26.921 26.921 0 0 0-.857-2.576l-.081-.213a26.02 26.02 0 0 0-.349-.823l-.1-.231a26.966 26.966 0 0 0-.39-.824l-.091-.182a23.146 23.146 0 0 0-.449-.856l-.042-.076a26.88 26.88 0 0 0-22.435-13.885l-3.642 4.67a17.82 17.82 0 0 1-16.6 6.784zm0 0" fill="#e0ebfc"/><path data-name="Path 194" d="M33.274 123.916a26.859 26.859 0 0 0-18.282 10.158l-.048.066c-.146.187-.287.377-.427.569-.088.119-.175.236-.261.356-.134.188-.263.377-.392.569a23.57 23.57 0 0 0-.257.387q-.183.284-.362.571c-.084.137-.166.276-.248.415q-.168.285-.332.576c-.081.146-.159.294-.238.441-.1.192-.205.383-.3.579-.078.156-.153.315-.228.473-.091.19-.184.379-.27.572s-.163.381-.243.571c-.127.3-.251.611-.367.92-.081.211-.161.422-.237.635-.058.169-.112.342-.168.512-.068.207-.136.412-.2.622-.052.173-.1.347-.147.519-.058.211-.116.421-.17.634-.043.175-.084.351-.125.527-.049.217-.1.435-.142.653a30.39 30.39 0 0 0-.216 1.206c-.026.17-.054.339-.077.512-.033.241-.061.484-.088.727-.016.161-.037.321-.052.484-.024.271-.042.543-.058.817-.009.136-.02.272-.026.411-.019.412-.03.824-.03 1.242v5.381h85.2v-5.381c0-.424-.011-.845-.03-1.263-.006-.144-.019-.284-.028-.426-.018-.275-.035-.55-.061-.822-.015-.169-.035-.338-.054-.507a25.598 25.598 0 0 0-.287-1.924 22.046 22.046 0 0 0-.245-1.17c-.046-.2-.093-.4-.144-.605-.043-.163-.09-.323-.135-.484a27.037 27.037 0 0 0-.856-2.576c-.028-.069-.054-.141-.082-.212a28.283 28.283 0 0 0-.349-.825l-.1-.231a28.165 28.165 0 0 0-.391-.824l-.09-.182a25.726 25.726 0 0 0-.449-.856l-.042-.074a26.885 26.885 0 0 0-22.436-13.886l-.049.063h.124l-17.432 25.175-17.432-25.173zm0 0" fill="#6bdddd"/><path data-name="Path 195" d="M18.403 86.684h-2.679a10.6 10.6 0 0 1-10.6-10.595V46.728a10.6 10.6 0 0 1 10.6-10.6h2.681a10.6 10.6 0 0 1 10.6 10.6v29.36a10.6 10.6 0 0 1-10.602 10.596zm0 0" fill="#4671c6"/><path data-name="Path 196" d="M18.405 87.975h-2.683A11.9 11.9 0 0 1 3.836 76.089V46.728a11.9 11.9 0 0 1 11.886-11.887h2.683a11.9 11.9 0 0 1 11.886 11.887v29.356a11.9 11.9 0 0 1-11.886 11.887zm-2.683-50.552a9.315 9.315 0 0 0-9.3 9.3v29.361a9.316 9.316 0 0 0 9.3 9.3h2.681a9.316 9.316 0 0 0 9.3-9.3v-29.36a9.315 9.315 0 0 0-9.3-9.3zm0 0" fill="#3762cc"/><path data-name="Path 197" d="M86.555 86.99h-2.681a10.6 10.6 0 0 1-10.6-10.6V47.032a10.6 10.6 0 0 1 10.6-10.595h2.681a10.6 10.6 0 0 1 10.6 10.595v29.361a10.6 10.6 0 0 1-10.6 10.597zm0 0" fill="#4671c6"/><path data-name="Path 198" d="M86.556 88.279h-2.683a11.9 11.9 0 0 1-11.886-11.886v-29.36a11.9 11.9 0 0 1 11.886-11.886h2.683a11.9 11.9 0 0 1 11.886 11.886v29.361a11.9 11.9 0 0 1-11.886 11.885zm-2.683-50.55a9.315 9.315 0 0 0-9.3 9.3V76.39a9.315 9.315 0 0 0 9.3 9.3h2.681a9.315 9.315 0 0 0 9.3-9.3V47.033a9.315 9.315 0 0 0-9.3-9.3zm0 0" fill="#3762cc"/><path data-name="Path 199" d="M89.555 63.859c-.082 0-.16.01-.241.013v-3.6a38.082 38.082 0 0 0-76.164 0v3.6c-.081 0-.16-.013-.241-.013a11.618 11.618 0 1 0 1.246 23.171 38.078 38.078 0 0 0 74.154 0 11.617 11.617 0 1 0 1.247-23.167zm0 0" fill="#f9cfcf"/><g data-name="Group 202" fill="#3762cc"><path data-name="Path 200" d="M31.129 77.002a3.872 3.872 0 0 1-3.873-3.873v-6.455a3.873 3.873 0 0 1 7.746 0v6.455a3.873 3.873 0 0 1-3.873 3.873zm0 0"/><path data-name="Path 201" d="M71.336 77.002a3.872 3.872 0 0 1-3.873-3.873v-6.455a3.873 3.873 0 1 1 7.746 0v6.455a3.873 3.873 0 0 1-3.873 3.873zm0 0"/><path data-name="Path 202" d="M51.232 117.72a39.183 39.183 0 0 1-38.07-29.336 12.909 12.909 0 0 1-1.3-25.773v-2.337a39.373 39.373 0 0 1 78.746 0v2.337a12.909 12.909 0 0 1-1.3 25.773 39.183 39.183 0 0 1-38.07 29.336zM14.157 85.739a1.29 1.29 0 0 1 1.256 1 36.788 36.788 0 0 0 71.638 0 1.3 1.3 0 0 1 1.393-.991 10.7 10.7 0 0 0 1.111.062 10.328 10.328 0 0 0 .006-20.655c-.1.006-.165.01-.227.011a1.291 1.291 0 0 1-1.312-1.291v-3.6a36.791 36.791 0 1 0-73.583 0v3.6a1.291 1.291 0 0 1-.385.92 1.321 1.321 0 0 1-.927.371c-.062 0-.122-.005-.184-.009h-.005a10.326 10.326 0 1 0 1.079 20.59 1.3 1.3 0 0 1 .139-.008zm0 0"/><path data-name="Path 203" d="M51.651 97.881c-5.452 0-9.889-4.008-9.889-8.933a1.291 1.291 0 0 1 2.582 0c0 3.5 3.278 6.351 7.307 6.351s7.307-2.849 7.307-6.351a1.291 1.291 0 0 1 2.582 0c.001 4.926-4.437 8.933-9.889 8.933zm0 0"/><path data-name="Path 204" d="M94.478 157.312h-85.2a1.292 1.292 0 0 1-1.291-1.291v-5.382a28 28 0 0 1 24.407-27.926v-10.692a1.291 1.291 0 0 1 1.895-1.142 36.839 36.839 0 0 0 17.177 4.26 36.377 36.377 0 0 0 16.729-4.02 1.291 1.291 0 0 1 1.88 1.148v10.3a28.1 28.1 0 0 1 25.7 28.07v5.382a1.292 1.292 0 0 1-1.297 1.293zm-83.91-2.582h82.619v-4.091a25.522 25.522 0 0 0-24.539-25.574 1.291 1.291 0 0 1-1.232-1.428l.073-.683v-8.636a38.928 38.928 0 0 1-16.027 3.4 39.49 39.49 0 0 1-16.49-3.621v8.946a2.533 2.533 0 0 0 .067.541 1.238 1.238 0 0 1 .03.274 1.291 1.291 0 0 1-1.154 1.283c-.028 0-.054.005-.082.006a25.443 25.443 0 0 0-23.267 25.489zm0 0"/></g><path data-name="Path 205" d="M97.175 42.601H5.519v-11.4a29.908 29.908 0 0 1 29.908-29.91h31.84a29.907 29.907 0 0 1 29.908 29.908zm0 0" fill="#ffea92"/><path data-name="Path 206" d="M97.238 42.6H5.51l-2.072 9.771c-.884 4.18 1.557 8.3 4.917 8.3h86.03c3.36 0 5.8-4.121 4.917-8.3zm0 0" fill="#e0ebfc"/><path data-name="Path 207" d="M94.389 61.964H8.36a5.8 5.8 0 0 1-4.519-2.293 9.1 9.1 0 0 1-1.66-7.567l2.066-9.771a1.292 1.292 0 0 1 1.262-1.021h91.73a1.291 1.291 0 0 1 1.263 1.025l2.066 9.771a9.1 9.1 0 0 1-1.659 7.567 5.8 5.8 0 0 1-4.521 2.293zM6.552 43.891L4.703 52.64a6.589 6.589 0 0 0 1.14 5.406 3.274 3.274 0 0 0 2.515 1.336H94.39a3.271 3.271 0 0 0 2.514-1.336 6.589 6.589 0 0 0 1.14-5.406l-1.849-8.749zm0 0" fill="#3762cc"/><path data-name="Path 208" d="M79.664 150.626a1.938 1.938 0 0 0-1.678-.969H24.711a1.936 1.936 0 0 0-1.678.969l-3.108 5.394h62.839zm0 0" fill="#4671c6"/><path data-name="Path 209" d="M64.307 20.921H38.159l3.074-8.721a3.5 3.5 0 0 1 3.265-2.407h13.473a3.5 3.5 0 0 1 3.264 2.407zm0 0" fill="#4671c6"/><path data-name="Path 210" d="M40.849 18.573l2.017-5.723a1.75 1.75 0 0 1 1.633-1.2h13.472a1.749 1.749 0 0 1 1.631 1.2l2.017 5.723a.363.363 0 0 1-.321.493H41.171a.363.363 0 0 1-.322-.493zm0 0" fill="#e0ebfc"/><path data-name="Path 211" d="M71.704 14.569a1.732 1.732 0 1 0-1.728 1.841 1.786 1.786 0 0 0 1.728-1.841zm0 0" fill="#a4c9ff"/><path data-name="Path 212" d="M53.54 15.362h-4.613a.6.6 0 0 1-.6-.6v-1.279a.6.6 0 0 1 .6-.6h4.613a.6.6 0 0 1 .6.6v1.279a.6.6 0 0 1-.6.6zm0 0" fill="#a4c9ff"/><path data-name="Path 213" d="M51.428 14.12h-.387a.387.387 0 0 1-.387-.388v-2.085h1.162v2.085a.388.388 0 0 1-.388.388zm0 0" fill="#4671c6"/><path data-name="Path 214" d="M67.239 33.339H34.971a1.017 1.017 0 0 1-1.016-1.017v-2.71a1.017 1.017 0 0 1 1.016-1.017h32.268a1.017 1.017 0 0 1 1.017 1.017v2.709a1.017 1.017 0 0 1-1.017 1.018zm0 0" fill="#6bdddd"/><path data-name="Path 215" d="M38.944 33.337v3.282a1.018 1.018 0 0 0 .986 1.049h2.83a1.019 1.019 0 0 0 .987-1.049v-3.282zm0 0" fill="#f9a7a7"/><path data-name="Path 216" d="M58.992 33.337v3.282a1.018 1.018 0 0 0 .986 1.049h2.831a1.018 1.018 0 0 0 .986-1.049v-3.282zm0 0" fill="#f9a7a7"/><path data-name="Path 217" d="M67.271 28.597a.946.946 0 0 1 .233.03v-5.913a1.741 1.741 0 0 0-1.684-1.793H36.648a1.741 1.741 0 0 0-1.684 1.793v5.883zm0 0" fill="#4671c6"/><path data-name="Path 218" d="M41.21 27.778a3.026 3.026 0 1 1 2.839-3.021 2.936 2.936 0 0 1-2.839 3.021zm0 0" fill="#f9a7a7"/><path data-name="Path 219" d="M41.21 26.869a2.112 2.112 0 1 1 1.982-2.108 2.05 2.05 0 0 1-1.982 2.108zm0 0" fill="#ffea92"/><path data-name="Path 220" d="M61.258 27.778a3.026 3.026 0 1 1 2.838-3.021 2.936 2.936 0 0 1-2.838 3.021zm0 0" fill="#f9a7a7"/><path data-name="Path 221" d="M61.258 26.869a2.112 2.112 0 1 1 1.982-2.108 2.05 2.05 0 0 1-1.982 2.108zm0 0" fill="#ffea92"/><path data-name="Path 222" d="M56.628 26.304H45.84a.708.708 0 0 1-.707-.708V23.92a.706.706 0 0 1 .707-.707h10.788a.707.707 0 0 1 .707.707v1.675a.708.708 0 0 1-.707.709zm0 0" fill="#f9cfcf"/><path data-name="Path 223" d="M39.431 13.278a1.732 1.732 0 1 0-1.728 1.841 1.786 1.786 0 0 0 1.728-1.841zm0 0" fill="#a4c9ff"/><path data-name="Path 224" d="M97.174 43.891H5.519A1.292 1.292 0 0 1 4.228 42.6V31.2A31.236 31.236 0 0 1 35.428 0h31.838a31.234 31.234 0 0 1 31.2 31.2v11.4a1.291 1.291 0 0 1-1.292 1.291zM6.808 41.31h89.074V31.2A28.649 28.649 0 0 0 67.266 2.582H35.428A28.65 28.65 0 0 0 6.808 31.2zm0 0" fill="#3762cc"/><path data-name="Path 225" d="M82.771 157.311H19.927a1.293 1.293 0 0 1-1.119-1.935l3.108-5.394a3.233 3.233 0 0 1 2.8-1.616h53.272a3.24 3.24 0 0 1 2.8 1.616l3.106 5.394a1.291 1.291 0 0 1-1.118 1.935zm-60.608-2.582h58.375l-1.993-3.459a.649.649 0 0 0-.558-.323H24.712a.646.646 0 0 0-.558.323zm0 0" fill="#3762cc"/><path data-name="Path 226" d="M28.324 153.326a4.517 4.517 0 0 1-5.233-3.665l-3.923-22.248a1.29 1.29 0 0 1 1.046-1.5l6.356-1.121a1.293 1.293 0 0 1 1.5 1.048l3.923 22.247a4.519 4.519 0 0 1-3.669 5.239zm0 0" fill="#4671c6"/><path data-name="Path 227" d="M27.538 154.686a5.82 5.82 0 0 1-5.718-4.8l-3.922-22.248a2.586 2.586 0 0 1 2.093-2.992l6.358-1.119a2.585 2.585 0 0 1 2.992 2.093l3.923 22.25a5.816 5.816 0 0 1-4.712 6.729 5.9 5.9 0 0 1-1.014.087zm.788-1.359h.006zm-1.529-27.259l-6.356 1.121 3.922 22.248a3.227 3.227 0 1 0 6.356-1.121zm0 0" fill="#3762cc"/><path data-name="Path 228" d="M74.369 153.326a4.517 4.517 0 0 0 5.234-3.665l3.923-22.248a1.291 1.291 0 0 0-1.046-1.5l-6.356-1.121a1.292 1.292 0 0 0-1.5 1.048l-3.923 22.247a4.519 4.519 0 0 0 3.665 5.234zm0 0" fill="#4671c6"/><path data-name="Path 229" d="M75.159 154.686a5.861 5.861 0 0 1-1.01-.088 5.809 5.809 0 0 1-4.711-6.731l3.922-22.248a2.589 2.589 0 0 1 2.992-2.094l6.356 1.121a2.583 2.583 0 0 1 2.094 2.992l-3.922 22.248a5.821 5.821 0 0 1-5.72 4.8zm-.562-2.631a3.227 3.227 0 0 0 3.739-2.618l3.923-22.248-6.356-1.121-3.923 22.248a3.228 3.228 0 0 0 2.618 3.739zm0 0" fill="#3762cc"/><path data-name="Path 230" d="M67.898 140.595l-1.036-1.554a.646.646 0 0 1 .537-1h5.836a1.289 1.289 0 0 0 1.085-.592l6.548-10.186a26.752 26.752 0 0 0-12.056-3.477l-.038.057-17.427 25.168 15.964-6.5a1.292 1.292 0 0 0 .587-1.912zm0 0" fill="#a4c9ff"/><path data-name="Path 231" d="M51.348 150.302a1.291 1.291 0 0 1-1.063-2.026l17.451-25.214a1.3 1.3 0 0 1 1.131-.571 28.243 28.243 0 0 1 12.636 3.645 1.292 1.292 0 0 1 .448 1.82l-6.546 10.189a2.573 2.573 0 0 1-2.172 1.186h-4.629l.367.551a2.582 2.582 0 0 1-1.174 3.824l-15.964 6.5a1.286 1.286 0 0 1-.485.1zm18.113-25.188l-14.583 21.064 11.946-4.866-1.036-1.554a1.936 1.936 0 0 1 1.612-3.01h5.836l5.793-9.009a25.231 25.231 0 0 0-9.566-2.625zm0 0" fill="#3762cc"/><path data-name="Path 232" d="M33.779 123.859a26.729 26.729 0 0 0-11.66 3.855l6.255 9.731a1.292 1.292 0 0 0 1.087.593h5.834a.645.645 0 0 1 .537 1l-1.036 1.554a1.292 1.292 0 0 0 .587 1.912l15.963 6.5-17.427-25.166zm0 0" fill="#a4c9ff"/><path data-name="Path 233" d="M51.347 150.302a1.311 1.311 0 0 1-.487-.095l-15.963-6.5a2.584 2.584 0 0 1-1.175-3.824l.367-.551h-4.627a2.573 2.573 0 0 1-2.172-1.186l-6.255-9.732a1.291 1.291 0 0 1 .41-1.8 28.226 28.226 0 0 1 12.2-4.038l.077-.013a1.29 1.29 0 0 1 1.263.541l17.427 25.173a1.291 1.291 0 0 1-1.061 2.026zm-27.411-22.15l5.526 8.6h5.834a1.936 1.936 0 0 1 1.611 3.01l-1.037 1.549 11.946 4.867-14.52-20.975a25.227 25.227 0 0 0-9.36 2.949zm11.134-4.293h.006zm0 0" fill="#3762cc"/><path data-name="Path 234" d="M38.944 33.339h-3.973a1.017 1.017 0 0 1-1.016-1.017v-2.71a1.017 1.017 0 0 1 1.016-1.017h-.008v-5.881a1.741 1.741 0 0 1 1.681-1.793h1.512l.359-1.019a3.371 3.371 0 0 0-.79.444c-.016-.025-.03-.052-.048-.077a2.968 2.968 0 0 0-4.315-.706 3.426 3.426 0 0 0-.663 4.593c.016.023.034.043.05.066l-.021.014a3.8 3.8 0 0 0-.74 5.1l-.072.05a3.426 3.426 0 0 0-.663 4.593 2.969 2.969 0 0 0 4.317.7l.067-.058a.085.085 0 0 0 .009.014 3.321 3.321 0 0 0 3.3 1.431zm0 0" fill="#a4c9ff"/><path data-name="Path 235" d="M67.239 28.593a1.148 1.148 0 0 1 .132.013.88.88 0 0 0-.1-.013zm0 0" fill="#a4c9ff"/><path data-name="Path 236" d="M68.565 19.492c-.029 0-.058.008-.087.01v-.016a3.61 3.61 0 0 0-2.462-3.318 3.8 3.8 0 0 0-.992-4.427c.019-.024.039-.045.057-.071a3.428 3.428 0 0 0-.541-4.609 2.963 2.963 0 0 0-4.332.575c-.019.024-.033.05-.05.076a.044.044 0 0 0-.011-.01 3.292 3.292 0 0 0-4.813.639 3.7 3.7 0 0 0-.632 1.451h3.269a3.5 3.5 0 0 1 3.264 2.407l3.074 8.723h1.512a1.74 1.74 0 0 1 1.684 1.791v5.911c-.014 0-.032 0-.047-.006a1.01 1.01 0 0 1 .353.16 3.768 3.768 0 0 0 .976-2.724h.087a3.214 3.214 0 0 0 2.93-3.444 3.167 3.167 0 0 0-3.237-3.116zm0 0" fill="#a4c9ff"/></svg>