<svg xmlns="http://www.w3.org/2000/svg" width="53.642" height="74.522" viewBox="0 0 53.642 74.522"><g data-name="Group 53" fill="#08c6f2"><path data-name="Path 53" d="M12.398 74.522c-.154-.064-.3-.139-.461-.19a2.724 2.724 0 0 1-1.99-2.65c-.019-2.3-.037-4.609.008-6.912.015-.755-.235-.943-.958-.927-2.036.046-4.074.022-6.111.014A2.7 2.7 0 0 1 .03 61.116q-.063-3.746 0-7.494a2.729 2.729 0 0 1 2.9-2.78c2.086-.006 4.172-.019 6.257.01.569.008.767-.165.761-.74-.024-2.207-.03-4.414 0-6.621.009-.631-.232-.767-.81-.758-2.013.029-4.026.015-6.039.01A2.814 2.814 0 0 1 .015 39.75q-.033-3.528 0-7.057a2.726 2.726 0 0 1 2.989-2.975c5.675-.007 11.351-.065 17.024.048 1.186.024 2.357 0 3.539-.018 5.723-.072 11.447-.038 17.171-.029a2.721 2.721 0 0 1 2.934 2.953 331.74 331.74 0 0 1-.009 6.766c-.009.643.2.828.832.816 1.964-.038 3.929.011 5.893-.021a2.956 2.956 0 0 1 3.229 3.177c-.064 2.254-.006 4.511-.018 6.766a2.769 2.769 0 0 1-3.093 3.1c-1.989.016-3.978.024-5.966-.006-.652-.01-.891.188-.879.869.038 2.158.034 4.317 0 6.475-.009.644.215.84.843.83 2.012-.03 4.026-.018 6.039-.008a2.752 2.752 0 0 1 3.053 3.06c.015 2.037-.078 4.079.028 6.11.1 1.973-.5 3.36-2.514 3.913H33.068a1.971 1.971 0 0 0-2.474 0zm-.948-12.84c2.763 0 5.527-.01 8.29.008.643 0 .886-.2.873-.886a179.663 179.663 0 0 1 0-6.4c.008-.611-.161-.873-.814-.872q-8.254.025-16.508 0c-.628 0-.849.219-.84.853.029 2.108.01 4.218.011 6.326 0 .921.038.966.993.968q3.997.01 7.997.002zM32.198 32c-2.738 0-5.476.005-8.214 0-.5 0-.812.051-.8.7.037 2.2.024 4.41.01 6.614 0 .562.162.842.783.84q8.25-.021 16.5 0c.6 0 .8-.24.79-.832a231.423 231.423 0 0 1 0-6.4c.012-.708-.244-.932-.93-.926-2.712.019-5.426.004-8.139.004zm.075 29.569c2.69 0 5.381-.012 8.071.009.684.005.939-.228.926-.936q-.058-3.162 0-6.326c.013-.718-.264-.923-.938-.921q-8.107.024-16.215 0c-.7 0-.935.258-.927.937.025 2.084 0 4.169.01 6.253 0 .921.07.985 1 .986q4.037.003 8.073-.002zm-20.75-21.33c2.763 0 5.526-.013 8.289.01.59 0 .808-.171.8-.786q-.047-3.271 0-6.543c.008-.617-.231-.795-.813-.794q-8.252.02-16.5 0c-.627 0-.854.21-.845.846.029 2.132.033 4.266 0 6.4-.011.66.18.892.862.883 2.73-.035 5.468-.016 8.207-.016zm30.563 2.641c-2.763 0-5.526.014-8.289-.011-.605-.005-.8.2-.788.8q.043 3.235 0 6.471c-.009.622.178.856.824.854q8.252-.028 16.505 0c.641 0 .841-.228.833-.853a220.227 220.227 0 0 1 0-6.4c.011-.671-.2-.88-.872-.872-2.735.029-5.474.01-8.213.011zm.009 29.359c2.715 0 5.43-.017 8.144.012.67.007.951-.157.936-.889a177.33 177.33 0 0 1 0-6.4c.01-.642-.215-.834-.843-.832q-8.254.028-16.507 0c-.659 0-.821.24-.813.853.029 2.133.035 4.267 0 6.4-.012.674.2.879.871.871 2.734-.034 5.473-.016 8.215-.015zm-20.633.14c2.741 0 5.482-.012 8.223.01.555 0 .762-.138.752-.735a274.943 274.943 0 0 1-.01-6.549c0-.614-.208-.835-.852-.832q-8.187.035-16.374 0c-.629 0-.857.19-.848.83q.044 3.2 0 6.4c-.01.667.219.889.886.882 2.74-.023 5.481-.006 8.223-.006zm-.037-29.5c-2.765 0-5.531.011-8.3-.009-.563 0-.777.185-.772.756q.03 3.275 0 6.55c-.006.6.212.813.81.811q8.224-.021 16.447 0c.614 0 .815-.242.812-.815a517.925 517.925 0 0 1 0-6.477c.005-.616-.208-.84-.852-.832-2.712.035-5.429.017-8.146.017z"/><path data-name="Path 54" d="M9.343 0a7.015 7.015 0 0 1 2.794 1.874q1.895 1.754 3.837 3.455a3.116 3.116 0 0 1 1.1 3.314c-.045.184.115.418.183.628.006.02.033.036.054.047a3.111 3.111 0 0 1 1.6 3.543 1.268 1.268 0 0 0 .011.29 2.442 2.442 0 0 0 .074.269c.228-.182.428-.32.6-.486.861-.819 1.707-1.653 2.573-2.466.962-.9 1.943-.633 2.279.646q1.918 7.292 3.8 14.592c.309 1.194-.59 2.016-1.821 1.654-2.458-.723-4.908-1.473-7.362-2.21q-3.438-1.032-6.876-2.06c-1.28-.385-1.524-1.39-.574-2.338 1.442-1.439 2.9-2.862 4.3-4.335a2.067 2.067 0 0 0 .511-1.19c.073-.989.035-1.987.018-2.98a1.9 1.9 0 0 0-1.825-1.55 2.79 2.79 0 0 1-2.411-.729C10.524 8.433 8.87 6.86 7.127 5.395A3.015 3.015 0 0 1 8.299.168a1.514 1.514 0 0 0 .309-.17zm8.49 18.318l-2.9 2.929 10.408 3.118-2.887-10.63-3 2.961c.16.123.379.27.575.445.7.63 1.423 1.246 2.093 1.91a1.165 1.165 0 0 1-.479 2.05 1.746 1.746 0 0 1-1.276-.411c-.919-.771-1.761-1.64-2.534-2.372zM8.775 2.398a1.8 1.8 0 0 0-.287.594.852.852 0 0 0 .208.612c1.617 1.526 3.255 3.028 4.884 4.542a.551.551 0 0 0 .878-.014c.343-.341.183-.587-.1-.845q-2.454-2.2-4.9-4.412c-.146-.125-.312-.216-.683-.477z"/></g></svg>