<svg xmlns="http://www.w3.org/2000/svg" width="17.175" height="34" viewBox="0 0 17.175 34"><path d="M.548 18.108h3.727v15.344a.548.548 0 0 0 .548.548h6.319a.548.548 0 0 0 .548-.548V18.181h4.284a.549.549 0 0 0 .545-.486l.651-5.649a.548.548 0 0 0-.545-.611H11.69V7.894c0-1.067.575-1.609 1.708-1.609h3.227a.548.548 0 0 0 .548-.548V.552A.548.548 0 0 0 16.627 0H11.98a8.522 8.522 0 0 0-5.572 2.1 5.843 5.843 0 0 0-1.943 5.194v4.141H.548a.548.548 0 0 0-.548.548v5.577a.548.548 0 0 0 .548.548z" fill="#fff"/></svg>