<svg xmlns="http://www.w3.org/2000/svg" width="170.909" height="57.253" viewBox="0 0 170.909 57.253"><g data-name="Group 98"><g data-name="Group 94"><path data-name="Path 71" d="M162.443 57.253H8.467A8.476 8.476 0 0 1 0 48.786V8.467A8.477 8.477 0 0 1 8.467 0h153.976a8.477 8.477 0 0 1 8.466 8.467v40.319a8.476 8.476 0 0 1-8.466 8.467zM8.467 2A6.474 6.474 0 0 0 2 8.467v40.319a6.474 6.474 0 0 0 6.467 6.467h153.976a6.473 6.473 0 0 0 6.466-6.467V8.467A6.473 6.473 0 0 0 162.443 2z" fill="#fff"/></g><g data-name="Group 95" fill="#fff"><path data-name="Path 72" d="M56.795 16.712h-1.136a7.479 7.479 0 0 0-.322-1.327h-1.639a6.8 6.8 0 0 0-.334 1.327h-1.068q0-.14.829-2.271a17.807 17.807 0 0 0 .828-2.348h1.341a19.542 19.542 0 0 0 .75 2.314 20.458 20.458 0 0 1 .751 2.305zm-1.639-2.005a19.9 19.9 0 0 1-.607-1.979h-.057q0 .138-.628 1.979z"/><path data-name="Path 73" d="M61.373 16.712h-.876a8.729 8.729 0 0 0-.976-1.537 8.465 8.465 0 0 1-1.164-2h-.056a12.5 12.5 0 0 1 .088 1.4q0 .876.05 2.136h-.873q.054-1.1.054-2.416 0-1.294-.054-2.2h1.054a6.69 6.69 0 0 0 .876 1.5 8.9 8.9 0 0 1 1.072 1.891h.053a13.316 13.316 0 0 1-.085-1.419q0-.962-.05-1.972h.887q-.05.879-.05 2.2t.05 2.417z"/><path data-name="Path 74" d="M66.511 14.242a2.619 2.619 0 0 1-.646 1.76 2.255 2.255 0 0 1-1.809.752q-.525 0-1.448-.042.047-1.073.046-2.416 0-1.292-.046-2.2h.621c.1 0 .253 0 .454-.011s.332-.011.394-.011a2.389 2.389 0 0 1 1.857.639 2.211 2.211 0 0 1 .577 1.529zm-.969.153a1.709 1.709 0 0 0-.4-1.148 1.51 1.51 0 0 0-1.213-.466 3.8 3.8 0 0 0-.419.032q.035.709.035 1.483 0 .847.036 1.681a2.325 2.325 0 0 0 .461.046 1.343 1.343 0 0 0 1.13-.473 1.828 1.828 0 0 0 .37-1.155z"/><path data-name="Path 75" d="M71.252 16.712h-1.05a6.981 6.981 0 0 0-.632-1.551.828.828 0 0 0-.709-.294h-.394q0 .912.032 1.842h-.986q.045-1.073.046-2.416 0-1.292-.046-2.2h.613c.071 0 .22 0 .445-.011s.435-.011.627-.011q1.627 0 1.628 1.114a1.248 1.248 0 0 1-.93 1.231v.054a1.1 1.1 0 0 1 .628.558 12.435 12.435 0 0 1 .728 1.684zm-1.331-3.264q0-.707-.908-.706a3.127 3.127 0 0 0-.589.05q.039.549.039 1.433c.13 0 .24.007.33.007q1.128 0 1.128-.784z"/><path data-name="Path 76" d="M76.337 14.317a2.551 2.551 0 0 1-.667 1.806 2.163 2.163 0 0 1-1.65.716 2.085 2.085 0 0 1-1.568-.658 2.315 2.315 0 0 1-.631-1.672 2.547 2.547 0 0 1 .667-1.806 2.161 2.161 0 0 1 1.649-.717 2.086 2.086 0 0 1 1.568.657 2.314 2.314 0 0 1 .632 1.674zm-.979.1a1.834 1.834 0 0 0-.38-1.2 1.169 1.169 0 0 0-.937-.461 1.081 1.081 0 0 0-.879.465 1.849 1.849 0 0 0-.362 1.174 1.829 1.829 0 0 0 .381 1.2 1.167 1.167 0 0 0 .935.463 1.082 1.082 0 0 0 .88-.467 1.855 1.855 0 0 0 .362-1.171z"/><path data-name="Path 77" d="M78.342 16.712h-1q.045-1.1.046-2.416 0-1.294-.046-2.2h1q-.045.894-.046 2.2 0 1.336.046 2.416z"/><path data-name="Path 78" d="M83.484 14.242a2.618 2.618 0 0 1-.645 1.76 2.255 2.255 0 0 1-1.809.752q-.526 0-1.448-.042.047-1.073.046-2.416 0-1.292-.046-2.2h.621c.1 0 .253 0 .454-.011s.332-.011.394-.011a2.392 2.392 0 0 1 1.857.639 2.21 2.21 0 0 1 .576 1.529zm-.968.153a1.715 1.715 0 0 0-.4-1.148 1.511 1.511 0 0 0-1.214-.466 3.8 3.8 0 0 0-.418.032q.035.709.035 1.483 0 .847.036 1.681a2.318 2.318 0 0 0 .461.046 1.343 1.343 0 0 0 1.13-.473 1.834 1.834 0 0 0 .37-1.155z"/><path data-name="Path 79" d="M90.306 16.712h-1.133a7.426 7.426 0 0 0-.323-1.327h-1.639a6.848 6.848 0 0 0-.333 1.327H85.81q0-.14.829-2.271a17.8 17.8 0 0 0 .828-2.348h1.341a19.542 19.542 0 0 0 .75 2.314 20.458 20.458 0 0 1 .748 2.305zm-1.639-2.005a19.9 19.9 0 0 1-.607-1.979h-.057a20.754 20.754 0 0 1-.628 1.979z"/><path data-name="Path 80" d="M94.444 13.302a1.384 1.384 0 0 1-.63 1.253 2.807 2.807 0 0 1-1.545.4c-.111 0-.19 0-.238-.007q0 .667.039 1.76h-1q.047-1.026.047-2.416 0-1.278-.047-2.2h.618c.087 0 .255 0 .5-.011s.464-.011.646-.011a2.036 2.036 0 0 1 1.139.305 1.034 1.034 0 0 1 .471.927zm-.916.2q0-.76-1.007-.76a2.807 2.807 0 0 0-.532.054q.039.671.039 1.518c.059.005.127.007.2.007q1.301-.004 1.3-.823z"/><path data-name="Path 81" d="M98.698 13.302a1.385 1.385 0 0 1-.629 1.253 2.807 2.807 0 0 1-1.545.4c-.112 0-.191 0-.238-.007q0 .667.039 1.76h-1q.047-1.026.046-2.416 0-1.278-.046-2.2h.617c.088 0 .256 0 .5-.011s.464-.011.646-.011a2.036 2.036 0 0 1 1.139.305 1.035 1.035 0 0 1 .471.927zm-.915.2q0-.76-1.007-.76a2.825 2.825 0 0 0-.533.054c.027.447.039.953.039 1.518a2.5 2.5 0 0 0 .206.007q1.296-.004 1.295-.823z"/><path data-name="Path 82" d="M105.654 14.317a2.55 2.55 0 0 1-.666 1.806 2.163 2.163 0 0 1-1.65.716 2.085 2.085 0 0 1-1.568-.658 2.315 2.315 0 0 1-.631-1.672 2.547 2.547 0 0 1 .667-1.806 2.161 2.161 0 0 1 1.649-.717 2.087 2.087 0 0 1 1.568.657 2.313 2.313 0 0 1 .631 1.674zm-.979.1a1.834 1.834 0 0 0-.379-1.2 1.169 1.169 0 0 0-.937-.461 1.081 1.081 0 0 0-.879.465 1.849 1.849 0 0 0-.362 1.174 1.829 1.829 0 0 0 .381 1.2 1.167 1.167 0 0 0 .935.463 1.083 1.083 0 0 0 .88-.467 1.855 1.855 0 0 0 .359-1.171z"/><path data-name="Path 83" d="M110.463 16.712h-.876a8.656 8.656 0 0 0-.976-1.537 8.411 8.411 0 0 1-1.163-2h-.057a12.522 12.522 0 0 1 .089 1.4q0 .876.049 2.136h-.872q.053-1.1.053-2.416 0-1.294-.053-2.2h1.053a6.691 6.691 0 0 0 .876 1.5 8.9 8.9 0 0 1 1.072 1.891h.053a13.316 13.316 0 0 1-.085-1.419q0-.962-.05-1.972h.887q-.05.879-.05 2.2t.05 2.417z"/></g><g data-name="Group 96" fill="#fff"><path data-name="Path 84" d="M68.613 31.51a7.4 7.4 0 0 1-2.04 5.478 7.951 7.951 0 0 1-6.029 2.431 8.574 8.574 0 1 1 0-17.147 8.458 8.458 0 0 1 3.37.687 6.759 6.759 0 0 1 2.568 1.834l-1.445 1.439a5.539 5.539 0 0 0-4.493-1.949 6.557 6.557 0 0 0 0 13.113 6.22 6.22 0 0 0 4.585-1.834 5.149 5.149 0 0 0 1.375-3.324h-5.96v-1.966h7.955a7.073 7.073 0 0 1 .114 1.238z"/><path data-name="Path 85" d="M71.112 29.16a5.895 5.895 0 0 1 8.3 0 6.431 6.431 0 0 1 0 8.551 5.895 5.895 0 0 1-8.3 0 6.428 6.428 0 0 1 0-8.551zm1.571 7.221a3.547 3.547 0 0 0 5.158 0 4.529 4.529 0 0 0 0-5.892 3.549 3.549 0 0 0-5.158 0 4.529 4.529 0 0 0 0 5.892z"/><path data-name="Path 86" d="M83.373 29.16a5.894 5.894 0 0 1 8.3 0 6.431 6.431 0 0 1 0 8.551 5.894 5.894 0 0 1-8.3 0 6.428 6.428 0 0 1 0-8.551zm1.57 7.221a3.548 3.548 0 0 0 5.159 0 4.533 4.533 0 0 0 0-5.892 3.55 3.55 0 0 0-5.159 0 4.529 4.529 0 0 0 0 5.892z"/><path data-name="Path 87" d="M99.539 44.37a5.091 5.091 0 0 1-3.256-1 5.85 5.85 0 0 1-1.81-2.281l1.926-.8a3.151 3.151 0 0 0 1.18 1.535 3.264 3.264 0 0 0 1.96.619 3.608 3.608 0 0 0 2.739-1.043 3.923 3.923 0 0 0 1-2.831v-1.076h-.091a4.3 4.3 0 0 1-1.559 1.375 4.663 4.663 0 0 1-2.269.551 4.938 4.938 0 0 1-3.76-1.72 6.537 6.537 0 0 1 0-8.528 4.941 4.941 0 0 1 3.76-1.719 4.674 4.674 0 0 1 2.269.55 4.3 4.3 0 0 1 1.559 1.376h.091v-1.56h2.018v10.66a5.6 5.6 0 0 1-1.674 4.391 5.893 5.893 0 0 1-4.083 1.501zm.16-6.877a3.363 3.363 0 0 0 2.534-1.1 4.717 4.717 0 0 0 0-5.914 3.442 3.442 0 0 0-5.055.011 4.641 4.641 0 0 0 0 5.892 3.353 3.353 0 0 0 2.521 1.111z"/><path data-name="Path 88" d="M109.396 39.052h-2.109V22.638h2.109z"/><path data-name="Path 89" d="M116.364 39.419a5.415 5.415 0 0 1-4.137-1.7 6.01 6.01 0 0 1-1.594-4.287 6.186 6.186 0 0 1 1.548-4.219 5.024 5.024 0 0 1 3.954-1.765 5.181 5.181 0 0 1 4 1.628 6.172 6.172 0 0 1 1.5 4.356l-.023.389h-8.872a3.812 3.812 0 0 0 1.135 2.682 3.441 3.441 0 0 0 2.441.986 3.027 3.027 0 0 0 3.073-1.926l1.879.78a5.038 5.038 0 0 1-1.811 2.189 5.266 5.266 0 0 1-3.093.887zm3.027-7.336a2.994 2.994 0 0 0-.883-1.834 3.155 3.155 0 0 0-2.419-.871 3.024 3.024 0 0 0-2.028.733 3.748 3.748 0 0 0-1.181 1.972z"/><path data-name="Path 90" d="M129.936 39.052h-2.11V22.638h5.594a5.191 5.191 0 0 1 3.61 1.386 4.771 4.771 0 0 1 0 6.993 5.186 5.186 0 0 1-3.61 1.386h-3.484zm0-8.665h3.53a2.726 2.726 0 0 0 2.132-.9 2.823 2.823 0 0 0 0-3.942 2.723 2.723 0 0 0-2.132-.895h-3.53z"/><path data-name="Path 91" d="M142.039 39.052h-2.108V22.638h2.108z"/><path data-name="Path 92" d="M147.473 39.419a4.434 4.434 0 0 1-2.991-1.032 3.415 3.415 0 0 1-1.205-2.728 3.372 3.372 0 0 1 1.422-2.877 5.77 5.77 0 0 1 3.507-1.043 6.036 6.036 0 0 1 3.049.688v-.322a2.5 2.5 0 0 0-.848-1.982 3.045 3.045 0 0 0-2.086-.745 3.234 3.234 0 0 0-1.662.435 2.242 2.242 0 0 0-1.02 1.192l-1.926-.825a4.365 4.365 0 0 1 1.536-1.868 4.914 4.914 0 0 1 3.027-.86 5.2 5.2 0 0 1 3.576 1.261 4.5 4.5 0 0 1 1.421 3.554v6.785h-2.018v-1.559h-.091a4.137 4.137 0 0 1-3.691 1.926zm.344-1.926a3.435 3.435 0 0 0 2.373-.975 3.018 3.018 0 0 0 1.065-2.3 4.158 4.158 0 0 0-2.682-.734 3.486 3.486 0 0 0-2.315.665 2 2 0 0 0-.779 1.559 1.5 1.5 0 0 0 .711 1.307 2.833 2.833 0 0 0 1.626.478z"/><path data-name="Path 93" d="M157.858 44.003h-2.178l2.613-5.662-4.631-10.523h2.292l3.348 8.071h.046l3.255-8.071h2.292z"/></g><g data-name="Group 97" fill="#fff"><path data-name="Path 94" d="M12.678 30.566V14.838a2.361 2.361 0 0 1 .58-1.717c.177-.189.305-.239.522-.018q5.292 5.4 10.6 10.783 3.435 3.489 6.877 6.97c.223.225.242.343.006.578q-8.433 8.387-16.843 16.8a.579.579 0 0 1-.911.054 2.14 2.14 0 0 1-.83-1.817q0-4.658-.006-9.316v-6.586z"/><path data-name="Path 95" d="M14.694 12.523a1.917 1.917 0 0 1 1.022.284q10.77 6.035 21.544 12.063c.331.185.324.288.069.539q-2.409 2.37-4.791 4.766c-.172.172-.277.272-.507.037q-8.569-8.739-17.153-17.463c-.048-.049-.087-.106-.184-.226z"/><path data-name="Path 96" d="M16.301 48.098q7.816-7.9 15.626-15.813c.323-.328.473-.284.762.017a302.651 302.651 0 0 0 4.008 4.083c.237.237.257.334-.065.51q-10.035 5.494-20.059 11.006a2.766 2.766 0 0 0-.272.197z"/><path data-name="Path 97" d="M46.073 30.712a1.643 1.643 0 0 1-.723 1.317 9.177 9.177 0 0 1-1 .608c-2.023 1.118-4.052 2.226-6.07 3.352a.454.454 0 0 1-.66-.088q-2.155-2.228-4.344-4.42c-.212-.214-.218-.33 0-.545q2.547-2.509 5.068-5.045a.407.407 0 0 1 .588-.082c2 1.133 4.005 2.249 6.009 3.372a1.84 1.84 0 0 1 1.132 1.531z"/></g></g></svg>