<svg xmlns="http://www.w3.org/2000/svg" width="36.5" height="36.5" viewBox="0 0 36.5 36.5"><g data-name="Group 42" transform="translate(-1658 -14)"><rect data-name="Rectangle 10" width="36.5" height="36.5" rx="18.25" transform="translate(1658 14)" fill="#fff" opacity=".15"/><g data-name="Group 27"><g data-name="Group 26"><path data-name="Path 36" d="M1679.298 24.404h-5.942a4.952 4.952 0 0 0-4.952 4.952v5.942a4.952 4.952 0 0 0 4.952 4.952h5.942a4.952 4.952 0 0 0 4.952-4.952v-5.942a4.952 4.952 0 0 0-4.952-4.952zm3.466 10.894a3.47 3.47 0 0 1-3.466 3.466h-5.942a3.47 3.47 0 0 1-3.466-3.466v-5.942a3.47 3.47 0 0 1 3.466-3.466h5.942a3.47 3.47 0 0 1 3.466 3.466z" fill="#08c6f2"/></g></g><g data-name="Group 29"><g data-name="Group 28"><path data-name="Path 37" d="M1676.326 28.365a3.961 3.961 0 1 0 3.961 3.961 3.962 3.962 0 0 0-3.961-3.961zm0 6.437a2.476 2.476 0 1 1 2.476-2.476 2.479 2.479 0 0 1-2.476 2.476z" fill="#08c6f2"/></g></g><g data-name="Group 31"><g data-name="Group 30"><ellipse data-name="Ellipse 7" cx=".528" cy=".528" rx=".528" ry=".528" fill="#08c6f2" transform="translate(1680.058 27.54)"/></g></g></g></svg>