<svg xmlns="http://www.w3.org/2000/svg" width="36.5" height="36.5" viewBox="0 0 36.5 36.5"><g data-name="Group 40" transform="translate(-1703 -14)"><rect data-name="Rectangle 9" width="36.5" height="36.5" rx="18.25" transform="translate(1703 14)" fill="#fff" opacity=".15"/><g data-name="Group 33"><g data-name="Group 32"><path data-name="Rectangle 7" fill="#08c6f2" d="M1713 29.108h3.655v11.238H1713z"/></g></g><g data-name="Group 35"><g data-name="Group 34"><path data-name="Path 38" d="M1726.608 29.24c-.039-.012-.076-.026-.116-.037s-.1-.02-.148-.029a3.276 3.276 0 0 0-.656-.066 5.079 5.079 0 0 0-3.928 2.148v-2.148h-3.652v11.238h3.655v-6.13s2.762-3.847 3.928-1.022v7.151h3.654v-7.583a3.645 3.645 0 0 0-2.737-3.522z" fill="#08c6f2"/></g></g><g data-name="Group 37"><g data-name="Group 36"><ellipse data-name="Ellipse 8" cx="1.788" cy="1.788" rx="1.788" ry="1.788" fill="#08c6f2" transform="translate(1713 24)"/></g></g></g></svg>