<svg data-name="13 - Copy" xmlns="http://www.w3.org/2000/svg" width="238.667" height="76.407" viewBox="0 0 238.667 76.407"><g data-name="Group 7"><g data-name="Group 1"><path data-name="Path 1" d="M3.881.047A3.6 3.6 0 0 1 6.5 1.123a4.355 4.355 0 0 1 1.169 2.712V8.09h10.708a3.328 3.328 0 0 1 2.619 1.122 3.928 3.928 0 0 1 1.029 2.619 3.693 3.693 0 0 1-1.122 2.619 3.489 3.489 0 0 1-2.525 1.122H7.669v6.359a6.09 6.09 0 0 0 .468 2.432 7.324 7.324 0 0 0 1.309 2.057 5.824 5.824 0 0 0 1.964 1.4 6.181 6.181 0 0 0 2.478.514 7.679 7.679 0 0 0 2.478-.374 5.308 5.308 0 0 0 1.824-1.169 4.019 4.019 0 0 1 2.619-1.029 3.906 3.906 0 0 1 2.665 1.076 3.226 3.226 0 0 1 .842 1.122 4.43 4.43 0 0 1 .327 1.356 4.324 4.324 0 0 1-.187 1.356 2.407 2.407 0 0 1-.748 1.169 14.246 14.246 0 0 1-4.3 2.9 12.82 12.82 0 0 1-5.05 1.029 15.33 15.33 0 0 1-5.471-.982 13.7 13.7 0 0 1-4.536-2.806 13.152 13.152 0 0 1-3.086-4.349 14.738 14.738 0 0 1-1.216-5.658V3.601a3.27 3.27 0 0 1 1.122-2.525A4.1 4.1 0 0 1 3.881.047z" fill="#08c6f2"/></g><g data-name="Group 2"><path data-name="Path 2" d="M44.984 8.557a3.27 3.27 0 0 1 2.525 1.122 3.746 3.746 0 0 1 1.029 2.432 3.466 3.466 0 0 1-1.075 2.525 3.312 3.312 0 0 1-2.432 1.076h-9.586a1.287 1.287 0 0 0-1.4 1.309 1.509 1.509 0 0 0 .374.982 1.306 1.306 0 0 0 1.029.421h6.313a7.407 7.407 0 0 1 3.226.7 8.6 8.6 0 0 1 2.572 1.917 7.976 7.976 0 0 1 1.683 2.759 8.42 8.42 0 0 1 .608 3.227 9.55 9.55 0 0 1-.655 3.507 9.447 9.447 0 0 1-1.824 2.759 8.7 8.7 0 0 1-2.806 1.777 9.8 9.8 0 0 1-3.554.655h-9.586a3.319 3.319 0 0 1-2.478-1.029 3.671 3.671 0 0 1 0-5.1 3.427 3.427 0 0 1 2.478-1.216h9.446c1.029 0 1.5-.468 1.5-1.356 0-.842-.514-1.263-1.5-1.263h-6.126a7.5 7.5 0 0 1-3.18-.7 8.456 8.456 0 0 1-2.572-1.87 7.567 7.567 0 0 1-1.683-2.759 8.8 8.8 0 0 1-.608-3.367 8.464 8.464 0 0 1 .655-3.227 8.8 8.8 0 0 1 1.777-2.712 8.367 8.367 0 0 1 5.892-2.619h9.96z" fill="#08c6f2"/></g><g data-name="Group 3"><path data-name="Path 3" d="M124.617 8.744a13.454 13.454 0 0 1 5.237 1.076 14.039 14.039 0 0 1 7.295 7.248 12.3 12.3 0 0 1 1.076 5.19v18.7a3.405 3.405 0 0 1-1.122 2.432 3.673 3.673 0 0 1-5.1-.094 3.466 3.466 0 0 1-1.075-2.525v-6.406a13.722 13.722 0 0 1-6.266 1.4 13.4 13.4 0 0 1-5.331-1.076 13.275 13.275 0 0 1-7.154-7.2 13.56 13.56 0 0 1 .047-10.474 13.565 13.565 0 0 1 7.2-7.2 12.891 12.891 0 0 1 5.193-1.071zm6.266 13.514a5.866 5.866 0 0 0-.468-2.385 6.282 6.282 0 0 0-1.309-1.964 6.413 6.413 0 0 0-1.964-1.356 6.182 6.182 0 0 0-2.478-.514 5.867 5.867 0 0 0-2.385.468 6.283 6.283 0 0 0-1.964 1.309 6.413 6.413 0 0 0-1.356 1.964 6.267 6.267 0 0 0-.047 4.863 6.5 6.5 0 0 0 1.309 2.011 6.413 6.413 0 0 0 1.964 1.356 6.27 6.27 0 0 0 4.863.047 6.5 6.5 0 0 0 2.011-1.309 6.412 6.412 0 0 0 1.356-1.964 6.235 6.235 0 0 0 .468-2.526z" fill="#08c6f2"/></g><path data-name="Path 4" d="M147.296 31.938a3.641 3.641 0 0 1-1.122 2.665 3.7 3.7 0 0 1-2.759 1.122 3.641 3.641 0 0 1-2.665-1.122 3.6 3.6 0 0 1-1.075-2.665 3.787 3.787 0 0 1 1.075-2.665 3.567 3.567 0 0 1 2.665-1.122 3.775 3.775 0 0 1 2.759 1.121 3.567 3.567 0 0 1 1.122 2.666z" fill="#08c6f2"/><path data-name="Path 5" d="M163.522 8.697a12.883 12.883 0 0 1 9.492 3.928 3.306 3.306 0 0 1 .888 2.525 3.353 3.353 0 0 1-1.076 2.385 3.765 3.765 0 0 1-2.572 1.029 3.08 3.08 0 0 1-2.572-1.029 6 6 0 0 0-4.115-1.543 6.126 6.126 0 0 0-2.432.514 7.74 7.74 0 0 0-2.011 1.4 6.413 6.413 0 0 0-1.356 1.964 5.856 5.856 0 0 0-.514 2.338 6.128 6.128 0 0 0 .514 2.432 6.007 6.007 0 0 0 1.4 2.011 7.249 7.249 0 0 0 2.011 1.356 5.866 5.866 0 0 0 2.385.468 5.937 5.937 0 0 0 4.115-1.5 3.508 3.508 0 0 1 5.144 0 3.076 3.076 0 0 1 .795 1.075 4.2 4.2 0 0 1 .327 1.263 4.035 4.035 0 0 1-.187 1.309 3.376 3.376 0 0 1-.655 1.122 13.6 13.6 0 0 1-4.3 2.946 13.446 13.446 0 0 1-10.428-.047 13.809 13.809 0 0 1-4.3-2.946 15.284 15.284 0 0 1-2.946-4.3 12.3 12.3 0 0 1-1.076-5.19 13 13 0 0 1 1.076-5.144 14.646 14.646 0 0 1 2.946-4.3 15.517 15.517 0 0 1 4.349-2.946 11.624 11.624 0 0 1 5.098-1.12z" fill="#08c6f2"/><path data-name="Path 6" d="M189.896 9.212a13.058 13.058 0 0 1 5.19 1.076 13.68 13.68 0 0 1 4.3 2.9 14.648 14.648 0 0 1 2.946 4.3 12.64 12.64 0 0 1 1.076 5.331 13.115 13.115 0 0 1-1.076 5.237 13.513 13.513 0 0 1-12.485 8.23 13.084 13.084 0 0 1-5.237-1.029 12.693 12.693 0 0 1-4.3-2.806 13.358 13.358 0 0 1-3.975-9.633 13.083 13.083 0 0 1 1.029-5.237 13.345 13.345 0 0 1 2.852-4.255 13.679 13.679 0 0 1 4.3-2.9 13.909 13.909 0 0 1 5.38-1.214zm0 7.295a5.867 5.867 0 0 0-2.385.468 6.284 6.284 0 0 0-1.964 1.309 6.411 6.411 0 0 0-1.356 1.964 6.115 6.115 0 0 0 0 4.91 6.623 6.623 0 0 0 1.356 2.011 6.414 6.414 0 0 0 1.964 1.356 5.9 5.9 0 0 0 2.385.514 6.127 6.127 0 0 0 2.432-.514 6.414 6.414 0 0 0 1.964-1.356 6.626 6.626 0 0 0 1.356-2.011 6.126 6.126 0 0 0 .514-2.432 6.307 6.307 0 0 0-6.266-6.219z" fill="#08c6f2"/><path data-name="Path 7" d="M216.221 8.698a11.13 11.13 0 0 1 3.273.514 9.135 9.135 0 0 1 2.946 1.637 10.006 10.006 0 0 1 10.054-1.45 9.81 9.81 0 0 1 3.18 2.057 9.267 9.267 0 0 1 2.2 3.086 8.747 8.747 0 0 1 .795 3.788v14.028a3.033 3.033 0 0 1-1.122 2.338 3.812 3.812 0 0 1-2.572 1.029 3.674 3.674 0 0 1-3.6-3.6V18.564a2.3 2.3 0 0 0-.748-1.777 2.693 2.693 0 0 0-1.87-.748 2.876 2.876 0 0 0-1.777.655 2.2 2.2 0 0 0-.795 1.87v13.561a3.494 3.494 0 0 1-1.076 2.572 3.678 3.678 0 0 1-2.619 1.076 3.735 3.735 0 0 1-2.525-.982 3.056 3.056 0 0 1-1.122-2.385V18.564a2.635 2.635 0 0 0-2.572-2.525 2.471 2.471 0 0 0-1.824.748 2.441 2.441 0 0 0-.795 1.824v13.84a3.806 3.806 0 0 1-1.122 2.338 3.46 3.46 0 0 1-2.478.982 3.643 3.643 0 0 1-1.45-.281 3.454 3.454 0 0 1-1.169-.795 3.981 3.981 0 0 1-.795-1.169 2.967 2.967 0 0 1-.234-1.4V18.377a9.039 9.039 0 0 1 .795-3.694 10.043 10.043 0 0 1 2.1-3.086 9.929 9.929 0 0 1 3.18-2.1 7.881 7.881 0 0 1 3.742-.799z" fill="#08c6f2"/><g data-name="Group 4"><path data-name="Path 8" d="M77.81 11.503a3.36 3.36 0 0 0-2.432-1.076 3.263 3.263 0 0 0-2.385 1.029 3.319 3.319 0 0 0-1.029 2.478v9.165a5.584 5.584 0 0 1-.468 2.291 7.314 7.314 0 0 1-1.263 1.87 5.988 5.988 0 0 1-1.87 1.263 5.62 5.62 0 0 1-4.489 0 7.315 7.315 0 0 1-1.87-1.263 5.987 5.987 0 0 1-1.262-1.87 5.289 5.289 0 0 1-.468-2.291v-9.165a3.515 3.515 0 0 0-3.414-3.507 3.36 3.36 0 0 0-2.432 1.076 3.323 3.323 0 0 0-.982 2.385v9.586a11.081 11.081 0 0 0 1.029 4.77 13.009 13.009 0 0 0 6.874 6.64 10.525 10.525 0 0 0 4.77.842 11.672 11.672 0 0 0 4.77-.842 13.336 13.336 0 0 0 4.068-2.665 12.745 12.745 0 0 0 2.806-3.975 11.081 11.081 0 0 0 1.029-4.77v-9.586a3.867 3.867 0 0 0-.982-2.385zm-21 4.255a1.824 1.824 0 1 1 1.824-1.824 1.8 1.8 0 0 1-1.819 1.825zm18.517 0a1.824 1.824 0 1 1 1.824-1.824 1.826 1.826 0 0 1-1.819 1.825z" fill="#0aef71"/></g><path data-name="Path 9" d="M56.768 14.402a21.914 21.914 0 0 1 .14-4.629 20.158 20.158 0 0 1 .514-2.291 21.887 21.887 0 0 1 .842-2.244A9.25 9.25 0 0 1 61.35 1.45 8.54 8.54 0 0 1 63.645.374a8.8 8.8 0 0 1 2.478-.327 10.911 10.911 0 0 1 2.478.327 8.541 8.541 0 0 1 2.291 1.076 9.088 9.088 0 0 1 3.086 3.834 21.9 21.9 0 0 1 .842 2.244 19.9 19.9 0 0 1 .468 2.291 19.177 19.177 0 0 1 .093 4.629 28.234 28.234 0 0 0-.888-4.489 17.578 17.578 0 0 0-1.637-4.115 9.1 9.1 0 0 0-2.806-3.133 5.516 5.516 0 0 0-1.87-.795 9.919 9.919 0 0 0-2.057-.281 7.534 7.534 0 0 0-2.057.281 6.75 6.75 0 0 0-1.87.842 8.654 8.654 0 0 0-2.806 3.133 20 20 0 0 0-1.683 4.115 30.361 30.361 0 0 0-.939 4.396z" fill="#0aef71"/><g data-name="Group 6"><g data-name="Group 5"><path data-name="Path 10" d="M108.485 12.812a11.984 11.984 0 0 0-1.029-5 13.049 13.049 0 0 0-6.827-6.827 12.442 12.442 0 0 0-4.91-.982 15.273 15.273 0 0 0-5.05 1.122 12.65 12.65 0 0 0-7.762 11.737 13.279 13.279 0 0 0 .374 3.086c.047.468.655 3.881 6.126 13.607a70.929 70.929 0 0 1 6.313 14.87 68.068 68.068 0 0 1 6.313-14.87c5.939-10.521 6.172-13.654 6.172-13.654a21.626 21.626 0 0 0 .28-3.089zm-7.341 2.338a3.724 3.724 0 0 1-.374.748 7.014 7.014 0 0 1-.888 1.169 5.872 5.872 0 0 1-1.87 1.309 5.847 5.847 0 0 1-4.583 0 6.44 6.44 0 0 1-1.87-1.309 5.509 5.509 0 0 1-.888-1.169 3.724 3.724 0 0 1-.374-.748 5.433 5.433 0 0 1-.468-2.291 5.5 5.5 0 0 1 .468-2.338 5.87 5.87 0 0 1 1.309-1.87 7.314 7.314 0 0 1 1.87-1.263 6.071 6.071 0 0 1 2.291-.468 5.979 5.979 0 0 1 4.162 1.777 6.092 6.092 0 0 1 1.73 4.115 6.55 6.55 0 0 1-.515 2.338z" fill="#0aef71"/></g></g></g><g data-name="Group 17"><g data-name="Group 8" fill="#08c6f2"><path data-name="Path 11" d="M19.639 54.572a7.821 7.821 0 0 0-2.432-1.59 7.385 7.385 0 0 0-2.806-.608 8.532 8.532 0 0 0-1.87.234 6.8 6.8 0 0 0-1.87.748 8.745 8.745 0 0 0-1.87 1.5 13.722 13.722 0 0 0-1.87 2.432L0 68.272l3.741 2.338 4.208-6.546a7.533 7.533 0 0 0 2.946 2.759 7.8 7.8 0 0 0 3.507.888 7.14 7.14 0 0 0 2.993-.608 7.948 7.948 0 0 0 2.432-1.637 7.378 7.378 0 0 0 2.151-5.237 7.8 7.8 0 0 0-.608-3.133 7.572 7.572 0 0 0-1.731-2.524zM16.6 62.381a3.286 3.286 0 0 1-2.338.935 3.194 3.194 0 0 1-3.227-3.226 3.368 3.368 0 0 1 .935-2.338 3.042 3.042 0 0 1 2.291-.982 3.218 3.218 0 0 1 2.338.982 3.143 3.143 0 0 1 .982 2.338 3.042 3.042 0 0 1-.981 2.289z"/><path data-name="Path 12" d="M62.285 56.768a6.994 6.994 0 0 0-1.73-2.432 7.444 7.444 0 0 0-2.572-1.5 9.78 9.78 0 0 0-3.133-.514h-1.777l8.043-8-3.18-3.086-12.111 12.071v3.414h9.259a3.549 3.549 0 0 1 2.525.888 3.172 3.172 0 0 1 .982 2.478 2.97 2.97 0 0 1-.982 2.385 4.152 4.152 0 0 1-2.759.888H40.405a9.79 9.79 0 0 0 .608-1.637 8.075 8.075 0 0 0 .234-1.964 7.157 7.157 0 0 0-.561-2.806 7.274 7.274 0 0 0-1.543-2.338 7.992 7.992 0 0 0-2.385-1.637 7.356 7.356 0 0 0-3.039-.608 8.016 8.016 0 0 0-3.273.608 7.746 7.746 0 0 0-2.478 1.683 7.92 7.92 0 0 0-1.549 2.482 9.144 9.144 0 0 0-.514 2.993 6.439 6.439 0 0 0 .608 2.9 7.2 7.2 0 0 0 1.59 2.291 7.751 7.751 0 0 0 2.291 1.59 9.355 9.355 0 0 0 2.759.795l-3.413 6.687 3.881 2.011 4.583-8.7h16.881a9.144 9.144 0 0 0 2.993-.514 6.84 6.84 0 0 0 2.525-1.5 7.456 7.456 0 0 0 1.73-2.385 8.015 8.015 0 0 0 .655-3.273 8.657 8.657 0 0 0-.703-3.27zm-25.58 3.881a7.683 7.683 0 0 1-.327.935 8.717 8.717 0 0 1-.888 1.73h-1.585a3.738 3.738 0 0 1-2.712-.935 3.241 3.241 0 0 1-.935-2.385 3.172 3.172 0 0 1 .982-2.478 3.26 3.26 0 0 1 2.151-.888 3.519 3.519 0 0 1 2.385.888 3.026 3.026 0 0 1 1.029 2.527 1.486 1.486 0 0 1-.1.606z"/></g><g data-name="Group 9" fill="#08c6f2"><path data-name="Path 13" d="M92.445 51.39a2.622 2.622 0 0 0 1.87-.795 2.543 2.543 0 0 0 .795-1.87 2.492 2.492 0 0 0-.842-1.87 2.683 2.683 0 0 0-1.824-.795 2.621 2.621 0 0 0-1.87.795 2.543 2.543 0 0 0-.795 1.87 2.433 2.433 0 0 0 .748 1.87 2.349 2.349 0 0 0 1.918.795z"/><path data-name="Path 14" d="M86.74 51.39a2.5 2.5 0 0 0 1.917-.795 2.705 2.705 0 0 0 .7-1.824 2.621 2.621 0 0 0-.795-1.87 2.543 2.543 0 0 0-1.87-.795 2.517 2.517 0 0 0-1.824.795 2.543 2.543 0 0 0 0 3.694 2.445 2.445 0 0 0 1.872.795z"/><path data-name="Path 15" d="M98.01 59.994a3.086 3.086 0 0 1-.281 1.263 3.708 3.708 0 0 1-1.824 1.824 2.88 2.88 0 0 1-1.216.281H83.982a3.222 3.222 0 0 1-2.619-.982 3.321 3.321 0 0 1-.842-2.2 3.68 3.68 0 0 1 .561-1.964 3.634 3.634 0 0 1 1.777-1.4l-3.18-3.226a8.008 8.008 0 0 0-2.665 2.946 7.732 7.732 0 0 0-.888 3.6 8.068 8.068 0 0 0 .514 2.806 7.283 7.283 0 0 0 1.5 2.432 7.869 7.869 0 0 0 2.432 1.73 8.409 8.409 0 0 0 3.32.655h10.849a7.889 7.889 0 0 0 3.18-.655 7.114 7.114 0 0 0 2.432-1.777 9.155 9.155 0 0 0 1.543-2.478 7.5 7.5 0 0 0 .561-2.806v-7.9h-4.4v7.856z"/><path data-name="Path 16" d="M119.941 54.478a7.107 7.107 0 0 0-2.385-1.59 7.951 7.951 0 0 0-2.993-.608 7.79 7.79 0 0 0-3.226.608 7.087 7.087 0 0 0-3.975 4.068 7.858 7.858 0 0 0-.561 2.946 7.588 7.588 0 0 0 .561 2.993 7.273 7.273 0 0 0 1.543 2.338 7.069 7.069 0 0 0 2.296 1.545 9.757 9.757 0 0 0 2.9.7l-3.507 6.921 3.881 2.011 6.547-12.485a8.972 8.972 0 0 0 .795-2.058 9.225 9.225 0 0 0 .281-2.244 7.387 7.387 0 0 0-.561-2.852 8.1 8.1 0 0 0-1.596-2.293zm-3.273 7.856a3.453 3.453 0 0 1-2.338.935 3.031 3.031 0 0 1-2.245-.888 3.21 3.21 0 0 1-.888-2.385 3.324 3.324 0 0 1 .888-2.338 2.943 2.943 0 0 1 2.245-.982 3.206 3.206 0 0 1 2.432.982 3.368 3.368 0 0 1 .935 2.338 2.956 2.956 0 0 1-1.029 2.336z"/><path data-name="Path 17" d="M139.908 57.048a6.659 6.659 0 0 0-1.59-2.432 6.767 6.767 0 0 0-2.432-1.637 7.425 7.425 0 0 0-3.086-.608h-7.341v4.4h7.248a3.138 3.138 0 0 1 1.543.327 3.087 3.087 0 0 1 1.683 1.87 3.4 3.4 0 0 1 .187 1.169 2.97 2.97 0 0 1-.982 2.385 3.61 3.61 0 0 1-2.432.888h-7.247v4.4h7.388a7.45 7.45 0 0 0 2.9-.561 7.544 7.544 0 0 0 2.432-1.59 8.487 8.487 0 0 0 1.68-2.387 7.425 7.425 0 0 0 .608-3.086 8.311 8.311 0 0 0-.559-3.138z"/></g><g data-name="Group 16"><g data-name="Group 10"><path data-name="Path 18" d="M174.136 50.128a2.563 2.563 0 0 0 1.73-.795 2.518 2.518 0 0 0 .842-1.917 2.442 2.442 0 0 0-.748-1.777 2.651 2.651 0 0 0-3.788 0 2.591 2.591 0 0 0-.7 1.777 2.648 2.648 0 0 0 .795 1.917 2.316 2.316 0 0 0 1.869.795z" fill="#08c6f2"/></g><g data-name="Group 11"><path data-name="Path 19" d="M168.478 50.128a2.563 2.563 0 0 0 1.73-.795 2.518 2.518 0 0 0 .842-1.917 2.442 2.442 0 0 0-.748-1.777 2.651 2.651 0 0 0-3.788 0 2.591 2.591 0 0 0-.7 1.777 2.649 2.649 0 0 0 .795 1.917 2.316 2.316 0 0 0 1.869.795z" fill="#08c6f2"/></g><g data-name="Group 12"><path data-name="Path 20" d="M168.662 52.886a7.468 7.468 0 0 0-2.525 1.683 7.993 7.993 0 0 0-1.4 8.838 7.037 7.037 0 0 0 1.917 2.432 8.779 8.779 0 0 0 2.712 1.4 11.877 11.877 0 0 0 3.18.468h2.385a3.446 3.446 0 0 1-.514 1.73 3.1 3.1 0 0 1-.982.935 3.424 3.424 0 0 1-1.169.374c-.421.047-.748.094-1.029.094h-5.611a8.238 8.238 0 0 1-3.086-.561 7.7 7.7 0 0 1-2.432-1.543 6.953 6.953 0 0 1-2.151-5.1 9.411 9.411 0 0 1 .514-2.759 5.834 5.834 0 0 1 1.777-2.619l-3.133-3.086a10.169 10.169 0 0 0-2.665 3.834 11.538 11.538 0 0 0-.888 4.536 12.2 12.2 0 0 0 .888 4.77 11.4 11.4 0 0 0 2.478 3.694 11.088 11.088 0 0 0 3.834 2.385 13.877 13.877 0 0 0 4.91.842h5.284a8.955 8.955 0 0 0 3.46-.608 6.935 6.935 0 0 0 2.572-1.637 7.494 7.494 0 0 0 1.637-2.385 9.815 9.815 0 0 0 .7-2.852V52.325h-7.293a7.98 7.98 0 0 0-3.37.561zm6.219 3.741v6.687h-2.9a3.734 3.734 0 0 1-2.619-.935 3.206 3.206 0 0 1-.982-2.432 3.143 3.143 0 0 1 .187-1.122 2.9 2.9 0 0 1 .655-1.076 3.05 3.05 0 0 1 1.169-.795 4.819 4.819 0 0 1 1.777-.327z" fill="#08c6f2"/></g><g data-name="Group 13"><path data-name="Path 21" d="M230.25 49.987a2.442 2.442 0 0 0 1.777-.748 2.411 2.411 0 0 0 .795-1.917 2.591 2.591 0 0 0-.7-1.777 2.47 2.47 0 0 0-1.87-.795 2.4 2.4 0 0 0-1.87.795 2.621 2.621 0 0 0-.7 1.824 2.468 2.468 0 0 0 .748 1.917 2.7 2.7 0 0 0 1.82.701z" fill="#08c6f2"/></g><g data-name="Group 14"><path data-name="Path 22" d="M237.778 45.498a2.47 2.47 0 0 0-1.824-.748 2.5 2.5 0 0 0-1.917.795 2.716 2.716 0 0 0 .047 3.694 2.517 2.517 0 0 0 1.824.795 2.639 2.639 0 0 0 2.525-2.665 2.168 2.168 0 0 0-.655-1.871z" fill="#08c6f2"/></g><g data-name="Group 15"><path data-name="Path 23" d="M231.372 59.994a3.177 3.177 0 0 1-.935 2.291 3.661 3.661 0 0 1-2.1 1.076h-2.946a7.634 7.634 0 0 0 .748-3.32v-7.9h-4.4v7.9a3.354 3.354 0 0 1-3.273 3.32h-1.543a4.358 4.358 0 0 0 .608-1.637 10.359 10.359 0 0 0 .14-1.73v-7.9h-4.4v7.9a3.087 3.087 0 0 1-.281 1.263 3.426 3.426 0 0 1-.748 1.076 4.059 4.059 0 0 1-1.075.748 3.046 3.046 0 0 1-1.216.281h-1.538a5.229 5.229 0 0 0 .561-1.637 10.359 10.359 0 0 0 .14-1.73v-7.9h-4.4v7.9a2.88 2.88 0 0 1-.281 1.216 4.272 4.272 0 0 1-.7 1.075 2.965 2.965 0 0 1-1.076.748 3.138 3.138 0 0 1-1.309.281h-3.125a9.784 9.784 0 0 0 .608-1.637 8.074 8.074 0 0 0 .234-1.964 7.156 7.156 0 0 0-.561-2.806 7.274 7.274 0 0 0-1.543-2.338 7.993 7.993 0 0 0-2.385-1.637 7.358 7.358 0 0 0-3.039-.608 8.018 8.018 0 0 0-3.273.608 7.747 7.747 0 0 0-2.478 1.683 7.921 7.921 0 0 0-1.543 2.478 9.144 9.144 0 0 0-.514 2.993 6.439 6.439 0 0 0 .608 2.9 7.2 7.2 0 0 0 1.59 2.291 7.755 7.755 0 0 0 2.291 1.59 9.357 9.357 0 0 0 2.759.795l-3.414 6.687 3.881 2.011 4.583-8.7h5.424a7.491 7.491 0 0 0 5.424-2.245v2.245h3.086a7.31 7.31 0 0 0 5.471-2.291v2.291h3.086a7.357 7.357 0 0 0 3.039-.608 7.95 7.95 0 0 0 2.432-1.637v2.245h4.4a6.821 6.821 0 0 0 2.665-.561 7.35 7.35 0 0 0 2.385-1.59 9.165 9.165 0 0 0 1.73-2.432 7.665 7.665 0 0 0 .655-3.133v-7.9h-4.4v7.949zm-36.8.655a7.717 7.717 0 0 1-.327.935 8.714 8.714 0 0 1-.888 1.73h-1.59a3.738 3.738 0 0 1-2.712-.935 3.241 3.241 0 0 1-.935-2.385 3.172 3.172 0 0 1 .982-2.478 3.26 3.26 0 0 1 2.151-.888 3.519 3.519 0 0 1 2.385.888 3.026 3.026 0 0 1 1.029 2.525 3.222 3.222 0 0 1-.095.604z" fill="#08c6f2"/></g></g></g></svg>