<svg xmlns="http://www.w3.org/2000/svg" width="30.832" height="36.094" viewBox="0 0 30.832 36.094"><g data-name="Group 191"><path data-name="Path 172" d="M4.705 18.891a2.29 2.29 0 0 0 1.162 1.8 7.524 7.524 0 0 0 1.756.713 18.707 18.707 0 0 1-2.064 4.558 5.347 5.347 0 0 0-.033 5.562 9.642 9.642 0 0 0 8.332 4.572 7.267 7.267 0 0 0 5.962-3.089c2.09-2.848 2.554-7.05 1.238-11.24-1.219-3.884.411-5.955 1.49-6.846a4.923 4.923 0 1 0-1.373-2.421c-2.037 1.49-4.389 4.845-2.743 10.089 1.038 3.307.719 6.673-.832 8.787a4.542 4.542 0 0 1-3.742 1.966 6.92 6.92 0 0 1-5.921-3.154 2.637 2.637 0 0 1-.039-2.77 21.379 21.379 0 0 0 2.54-5.858 7.322 7.322 0 0 0 2.369-.792 2.285 2.285 0 0 0 1.189-1.731c3.233-2.923 4.726-8.189 4.812-8.5a1.374 1.374 0 0 0-.679-1.577c.447-3.953-1.017-5.946-1.9-6.758a.993.993 0 0 0-.418-1L14.184.142a.811.811 0 0 0-1.189.314l-.773 1.494a.729.729 0 0 0 .459 1.076l1.834.541a1.2 1.2 0 0 0 1.285-.493c.731.77 1.784 2.484 1.421 5.755a1.371 1.371 0 0 0-1.07.98 17.948 17.948 0 0 1-3.6 6.808 2.284 2.284 0 0 0-1.907.106 2.606 2.606 0 0 1-1.191.329h-.086a2.656 2.656 0 0 1-1.258-.364 2.275 2.275 0 0 0-1.881-.153A18.1 18.1 0 0 1 2.701 9.81a1.376 1.376 0 0 0-1.071-.98c-.363-3.27.689-4.985 1.421-5.755a1.2 1.2 0 0 0 1.285.493l1.834-.541a.73.73 0 0 0 .459-1.076L5.858.456A.811.811 0 0 0 4.669.142L3.045 1.2a.994.994 0 0 0-.418 1C1.745 3.012.281 5 .727 8.958a1.375 1.375 0 0 0-.679 1.578c.089.309 1.533 5.407 4.657 8.355zm21.232-9.407a1.912 1.912 0 1 1-1.91 1.916 1.912 1.912 0 0 1 1.91-1.916z" fill="#fff"/></g></svg>