<svg xmlns="http://www.w3.org/2000/svg" width="28.478" height="34.333" viewBox="0 0 28.478 34.333"><g data-name="Group 199"><g data-name="Group 192"><path data-name="Path 173" d="M16.574 22.807a1.632 1.632 0 0 0-.458-.333 5.526 5.526 0 0 0-1.161-.41v3.071a2.181 2.181 0 0 0 1.72-.907 1.4 1.4 0 0 0 .128-.959.965.965 0 0 0-.229-.462z" fill="#fff"/></g><g data-name="Group 193"><path data-name="Path 174" d="M16.667 24.234v-.006z" fill="#fff"/></g><g data-name="Group 194"><path data-name="Path 175" d="M11.938 17.898a1.152 1.152 0 0 0-.2.54 1.3 1.3 0 0 0 .066.6.957.957 0 0 0 .372.409 2.9 2.9 0 0 0 .552.285c.161.065.342.127.538.187V17.14a2.121 2.121 0 0 0-1.328.758z" fill="#fff"/></g><g data-name="Group 195"><path data-name="Path 176" d="M16.687 24.206l-.013.023z" fill="#fff"/></g><g data-name="Group 197"><path data-name="Path 178" d="M16.037 7.471C18.649 5.277 20.394.334 19.32.117c-1.427-.287-4.526.973-6.024 1.195-2.124.257-4.435-2.304-5.735-.876-1.056 1.16.757 5.38 3.594 7.218-8.463 4.159-20.358 25.039.394 26.554C40.261 36.3 25.882 11.524 16.037 7.471zm2.466 16.467a3.019 3.019 0 0 1-1.165 2.05 4.451 4.451 0 0 1-2.383.842v.9a.845.845 0 1 1-1.689 0v-.983a5.78 5.78 0 0 1-.433-.1 4.146 4.146 0 0 1-2.066-1.271 3.724 3.724 0 0 1-.637-1.052c-.039-.1-.075-.2-.105-.306a1.568 1.568 0 0 1-.067-.286.844.844 0 0 1 1.642-.351c.032.1.054.2.09.293a1.883 1.883 0 0 0 .13.277 2.153 2.153 0 0 0 .371.475 2.514 2.514 0 0 0 1.075.586V21.67a6.011 6.011 0 0 1-2.214-.957 2.577 2.577 0 0 1-.748-.9 2.811 2.811 0 0 1-.261-1.209 2.881 2.881 0 0 1 .253-1.224 2.985 2.985 0 0 1 .693-.951 4.23 4.23 0 0 1 2.272-1.008v-.934a.845.845 0 1 1 1.689 0v.929q.166.021.33.05a4.171 4.171 0 0 1 2.205 1.07 3.222 3.222 0 0 1 .675.97 3.093 3.093 0 0 1 .119.309 1.877 1.877 0 0 1 .079.3.845.845 0 0 1-1.624.427c-.035-.092-.053-.19-.089-.282a1.487 1.487 0 0 0-.132-.26 1.611 1.611 0 0 0-.4-.418 2.738 2.738 0 0 0-1.159-.453v3.2a10.722 10.722 0 0 1 1.443.428 3.372 3.372 0 0 1 1.76 1.378c-.06-.1-.118-.207 0 0s.062.108 0 0a3.013 3.013 0 0 1 .346 1.802z" fill="#fff"/></g><g data-name="Group 198"><path data-name="Path 179" d="M16.662 24.25l-.013.022z" fill="#fff"/></g></g></svg>