<svg xmlns="http://www.w3.org/2000/svg" width="86.72" height="73.143" viewBox="0 0 86.72 73.143"><g data-name="Group 164"><g data-name="Group 163"><path data-name="Path 132" d="M81.377 0H5.344A5.349 5.349 0 0 0 0 5.343v51.595a5.349 5.349 0 0 0 5.344 5.343h25.715l-1.04 8.321H25.71a1.27 1.27 0 0 0 0 2.541h35.3a1.27 1.27 0 0 0 0-2.541H56.7l-1.04-8.321h25.717a5.35 5.35 0 0 0 5.344-5.343V5.343A5.349 5.349 0 0 0 81.377 0zm-48.8 70.6l1.04-8.321H38.3l.459 1.834a4.748 4.748 0 0 0 9.213 0l.459-1.834H53.1l1.04 8.321zm8.334-8.321h4.892l-.3 1.218a2.208 2.208 0 0 1-4.284 0zm43.269-5.341a2.806 2.806 0 0 1-2.8 2.8H5.344a2.806 2.806 0 0 1-2.8-2.8V5.343a2.806 2.806 0 0 1 2.8-2.8h76.033a2.806 2.806 0 0 1 2.8 2.8v51.595z" fill="#fff"/></g></g><g data-name="Group 166"><g data-name="Group 165"><path data-name="Path 133" d="M71.873 5.431H6.701a1.27 1.27 0 0 0-1.27 1.27v48.878a1.27 1.27 0 0 0 1.27 1.27h2.716a1.27 1.27 0 0 0 0-2.541h-1.45V7.972h63.9a1.27 1.27 0 0 0 0-2.541z" fill="#fff"/></g></g><g data-name="Group 168"><g data-name="Group 167"><path data-name="Path 134" d="M80.015 5.431h-2.716a1.27 1.27 0 0 0 0 2.541h1.445V54.31h-63.9a1.27 1.27 0 0 0 0 2.541h65.171a1.27 1.27 0 0 0 1.27-1.27V6.701a1.27 1.27 0 0 0-1.27-1.27z" fill="#fff"/></g></g><g data-name="Group 170"><g data-name="Group 169"><path data-name="Path 135" d="M60.654 19.496a1.27 1.27 0 0 0-.943-.486l-29.87-1.358h-.07a2.632 2.632 0 0 0-1.056-1.421l-3.658-2.439a1.27 1.27 0 0 0-1.409 2.114l3.658 2.438a.088.088 0 0 1 .036.049l4.659 16.308a4 4 0 0 0 .692 1.36l-1.7 3.41a2.611 2.611 0 0 0 .115 2.557 2.638 2.638 0 0 0 .652.717 3.986 3.986 0 1 0 7.174.529h11.572a3.986 3.986 0 1 0 7.281-.33 1.269 1.269 0 0 0-.852-2.211h-23.6a.087.087 0 0 1-.078-.127l1.57-3.141a3.988 3.988 0 0 0 .993.127 4.1 4.1 0 0 0 .475-.028l17.85-2.1a5.331 5.331 0 0 0 4.615-4.259l2.135-10.676a1.27 1.27 0 0 0-.241-1.033zm-6.431 23.777a1.445 1.445 0 1 1-1.445 1.445 1.447 1.447 0 0 1 1.444-1.445zm-19.008 0a1.445 1.445 0 1 1-1.445 1.445 1.447 1.447 0 0 1 1.444-1.445zM32.1 25.797l-1.592-5.572 5.079.231.881 5.341zM36 35.04a1.439 1.439 0 0 1-1.558-1.038l-1.617-5.666h4.06l1.067 6.473zm7.446-.876l-2.97.349-1.016-6.177h3.988zm0-8.367h-4.407l-.861-5.223 5.268.24zm6.433 7.61l-3.893.458v-5.529h4.351zm.689-7.61h-4.581v-4.868l5 .227zm5.7 4.909a2.8 2.8 0 0 1-2.421 2.234l-1.392.164.431-4.766h3.855zm.982-4.909h-4.133l.41-4.525 4.587.208z" fill="#fff"/></g></g></svg>