<svg data-name="online-shop (1)" xmlns="http://www.w3.org/2000/svg" width="157.312" height="157.311" viewBox="0 0 157.312 157.311"><path data-name="Path 240" d="M150.757 24.58H6.555A6.574 6.574 0 0 0 0 31.135v97.664a6.574 6.574 0 0 0 6.555 6.555h144.2a6.574 6.574 0 0 0 6.555-6.555V31.135a6.574 6.574 0 0 0-6.553-6.555z" fill="#40596b"/><path data-name="Rectangle 42" fill="#fff" d="M9.832 34.412h137.647v90.782H9.832z"/><path data-name="Rectangle 43" fill="#cdd6e0" d="M48.504 135.353h59.975v17.698H48.504z"/><path data-name="Rectangle 44" fill="#f2f2f2" d="M30.479 153.051h96.353v4.261H30.479z"/><path data-name="Rectangle 45" fill="#acb3ba" d="M48.504 135.353h59.975v4.916H48.504z"/><path data-name="Path 241" d="M135.684 36.706v83.244a5.176 5.176 0 0 1-5.244 5.244H26.547a5.176 5.176 0 0 1-5.244-5.244V36.706z" fill="#f2f2f2"/><g data-name="Group 212" fill="#fff"><path data-name="Path 242" d="M79.315 59.975v12.454h-1.311V59.975z"/><path data-name="Path 243" d="M79.315 107.824v12.454h-1.311v-12.454h1.311z"/><path data-name="Path 244" d="M100.286 69.151L91.437 78l-.983-.983 8.849-8.849z"/><path data-name="Path 245" d="M66.53 103.235l-8.849 8.849-.983-.983 8.849-8.849z"/><path data-name="Path 246" d="M108.807 89.471v1.311H96.681v-1.311z"/><path data-name="Path 247" d="M60.958 90.127v.656H48.832v-1.311h12.126z"/><path data-name="Path 248" d="M100.286 110.774l-.983.983-8.521-8.521.983-.983z"/><path data-name="Path 249" d="M66.53 77.017l-.983.983-8.849-8.849.983-.983z"/><path data-name="Path 250" d="M72.43 73.416c-.328 0-.656.328-1.311.656l-2.95-6.882 1.311-.656z"/><path data-name="Path 251" d="M88.815 113.395l-1.311.656-2.95-6.882c.328 0 .656-.328 1.311-.656z"/><path data-name="Path 252" d="M62.597 82.589c-.328.328-.328.656-.656 1.311l-6.882-2.95.656-1.311z"/><path data-name="Path 253" d="M102.252 99.303l-.656 1.311-6.882-2.95c.328-.328.328-.656.656-1.311z"/><path data-name="Path 254" d="M62.597 97.337l-6.882 2.95-.656-1.311 6.882-2.95c.328.656.328.983.656 1.311z"/><path data-name="Path 255" d="M102.252 80.95L95.37 83.9c0-.328-.328-.656-.656-1.311l6.882-2.95z"/><path data-name="Path 256" d="M72.43 106.838l-2.95 6.882-1.311-.656 2.95-6.882c.654.331.982.331 1.311.656z"/><path data-name="Path 257" d="M88.815 66.858l-2.622 6.882c-.328-.328-.656-.328-1.311-.656l2.95-6.882z"/></g><path data-name="Path 258" d="M129.126 0H28.185a6.574 6.574 0 0 0-6.555 6.555V23.6h114.378V6.555A7.094 7.094 0 0 0 129.126 0z" fill="#ffd15c"/><path data-name="Path 259" d="M101.924 85.866l6.227 22.286 5.572-5.571 5.244 5.571 4.916-4.916-5.244-5.571 5.244-5.572z" fill="#40596b"/><circle data-name="Ellipse 17" cx="3.933" cy="3.933" r="3.933" transform="translate(60.63 7.865)" fill="#f8b64c"/><circle data-name="Ellipse 18" cx="3.933" cy="3.933" r="3.933" transform="translate(45.555 7.865)" fill="#ff7058"/><circle data-name="Ellipse 19" cx="3.933" cy="3.933" r="3.933" transform="translate(30.479 7.865)" fill="#f8b64c"/><path data-name="Path 260" d="M135.681 39.328v15.4a11.17 11.17 0 0 1-7.21 2.294 12.448 12.448 0 0 1-12.454-12.454 12.454 12.454 0 0 1-24.908 0 12.454 12.454 0 0 1-24.908 0 12.454 12.454 0 1 1-24.908 0 12.448 12.448 0 0 1-12.454 12.454 13.447 13.447 0 0 1-7.21-2.294v-15.4z" fill="#e4eaef"/><path data-name="Path 261" d="M41.295 36.706H16.387l5.244-13.109h22.611z" fill="#ff7058"/><path data-name="Path 262" d="M66.202 36.706H41.294l2.95-13.109h22.941z" fill="#cdd6e0"/><path data-name="Path 263" d="M91.11 36.706H66.202l.983-13.109h22.941z" fill="#ff7058"/><path data-name="Path 264" d="M116.017 36.706H91.109l-.983-13.109h22.941z" fill="#cdd6e0"/><path data-name="Path 265" d="M140.925 36.706h-24.907l-2.95-13.109h22.61z" fill="#ff7058"/><g data-name="Group 213" fill="#acb3ba"><path data-name="Path 266" d="M41.294 42.277a12.454 12.454 0 0 0 24.908 0v-5.571H41.294v5.571z"/><path data-name="Path 267" d="M91.109 36.706v5.571a12.454 12.454 0 0 0 24.908 0v-5.571z"/></g><g data-name="Group 214" fill="#f1543f"><path data-name="Path 268" d="M16.387 42.277a12.454 12.454 0 0 0 24.908 0v-5.571H16.387z"/><path data-name="Path 269" d="M66.202 42.277a12.454 12.454 0 1 0 24.908 0v-5.571H66.202v5.571z"/><path data-name="Path 270" d="M116.017 36.706v5.571a12.454 12.454 0 1 0 24.908 0v-5.571z"/></g><ellipse data-name="Ellipse 20" cx="19.336" cy="19.664" rx="19.336" ry="19.664" transform="translate(59.32 70.462)" fill="#ff7058"/><g data-name="Group 215" transform="translate(65.546 78)" fill="#fff"><path data-name="Path 271" d="M9.832 18.025l-.656-2.294h15.076V4.261H6.227L5.244 0H0v1.966h3.933l4.588 18.025h16.387v-1.966zM22.286 5.899v7.538H8.849L6.883 5.899z"/><circle data-name="Ellipse 21" cx="2.294" cy="2.294" r="2.294" transform="translate(10.488 21.302)"/><circle data-name="Ellipse 22" cx="2.294" cy="2.294" r="2.294" transform="translate(19.008 21.302)"/></g></svg>