<svg xmlns="http://www.w3.org/2000/svg" width="135.843" height="157.311" viewBox="0 0 135.843 157.311"><g data-name="pills (1)" transform="translate(-34.937)"><circle data-name="Ellipse 12" cx="4.85" cy="4.85" r="4.85" transform="translate(98.697 126.413)" fill="#7fdbd5"/><g data-name="Group 178" transform="translate(104.938 105.5)" fill="#38648c"><circle data-name="Ellipse 13" cx="4.615" cy="4.615" r="4.615" transform="translate(14.309 26.712)"/><circle data-name="Ellipse 14" cx="4.615" cy="4.615" r="4.615"/></g><circle data-name="Ellipse 15" cx="5.816" cy="5.816" r="5.816" transform="translate(121.539 112.908)" fill="#7fdbd5"/><circle data-name="Ellipse 16" cx="6.231" cy="6.231" r="6.231" transform="translate(103.323 144.85)" fill="#f28b74"/><path data-name="Path 162" d="M83.889 25.824l-21.109 18.8 26.743 30.027 21.109-18.8a20.105 20.105 0 0 0 1.644-28.386 20.105 20.105 0 0 0-28.387-1.641z" fill="#7fdbd5"/><path data-name="Path 163" d="M41.671 63.42l21.109-18.8 26.742 30.029-21.109 18.8a20.105 20.105 0 0 1-28.386-1.644 20.105 20.105 0 0 1 1.644-28.385z" fill="#287d99"/><path data-name="Path 164" d="M112.274 27.468a20.063 20.063 0 0 0-15.907-6.713 20.053 20.053 0 0 0 2.158 16.551l6.657 10.663a4.344 4.344 0 0 1-.892 5.633C91.835 64.01 75.905 75.245 67.573 78.655c-12.742 5.22-23.874-7.987-22.077-18.642l-3.6 3.207a20.106 20.106 0 1 0 26.517 30.225l42.217-37.6a20.105 20.105 0 0 0 1.644-28.386z" opacity=".1"/><path data-name="Path 165" d="M103.681 30.754l14.968 23.977 34.109-21.294-14.97-23.976a20.105 20.105 0 0 0-27.7-6.408 20.105 20.105 0 0 0-6.407 27.701z" fill="#76b7eb"/><path data-name="Path 166" d="M133.617 78.708l-14.968-23.977 34.106-21.294 14.968 23.977a20.105 20.105 0 0 1-6.408 27.7 20.105 20.105 0 0 1-27.698-6.406z" fill="#d1eff2"/><path data-name="Path 167" d="M161.319 85.115a20.266 20.266 0 0 0 2.531-1.868c-23.9-3.512-55.06-60.569-53.656-80.256-.035.021-.07.04-.1.062a20.105 20.105 0 0 0-6.408 27.7l29.936 47.953a20.106 20.106 0 0 0 27.7 6.408z" opacity=".1"/><path data-name="Path 168" d="M75.851 109.446l24.479 10.14a1.769 1.769 0 0 0 2.312-.958l14.034-33.88a1.769 1.769 0 0 0-.958-2.312l-24.479-10.14A20.1 20.1 0 0 0 64.97 83.177a20.105 20.105 0 0 0 10.881 26.269z" fill="#f28b74"/><path data-name="Path 169" d="M102.64 118.632l3.456-8.344c-28.912-5.5-38.619-22.589-36.357-34.029a20.021 20.021 0 0 0-4.771 6.922 20.1 20.1 0 0 0 10.883 26.269l24.479 10.14a1.769 1.769 0 0 0 2.31-.958z" opacity=".1"/><path data-name="Path 170" d="M157.803 109.446l-24.479 10.144a1.769 1.769 0 0 1-2.312-.958l-14.034-33.88a1.769 1.769 0 0 1 .958-2.312l24.479-10.14a20.1 20.1 0 0 1 26.269 10.881 20.105 20.105 0 0 1-10.881 26.265z" fill="#76b7eb"/></g></svg>