<svg xmlns="http://www.w3.org/2000/svg" width="69.91" height="75.219" viewBox="0 0 69.91 75.219"><g data-name="Group 51" fill="#08c6f2"><path data-name="Path 46" d="M58.477 75.22a2.577 2.577 0 0 0-.326-.161 1.982 1.982 0 0 1-1.56-2.115c-.012-3.356-.007-6.712-.007-10.068V33.26c-.012-1.363-.428-1.792-1.807-1.8-1.69-.015-3.38 0-5.071 0h-3.23c-.09.389-.147.7-.234 1a2.7 2.7 0 0 1-2.6 2q-8.672.017-17.343 0a2.616 2.616 0 0 1-2.609-2.324c-.068-.56-.306-.686-.8-.681-1.568.016-3.136-.017-4.7.014-1.544.031-2.1.632-2.109 2.17v2.306l.706.08a2.133 2.133 0 0 1 1.963 2.032c.044 1.86.048 3.723 0 5.583a2.057 2.057 0 0 1-2.121 2q-7.2.025-14.4 0a2.189 2.189 0 0 1-2.191-2.291q-.069-2.5 0-5c.037-1.434.82-2.138 2.608-2.418.012-.267.032-.552.037-.837.04-2.4 0-4.8.13-7.2.258-4.784 4.643-9.341 9.437-9.645 3.441-.219 6.9-.136 10.353-.156.655 0 1.043-.021 1.143-.875a2.53 2.53 0 0 1 2.564-2.092 61.057 61.057 0 0 1 3.086 0c.54.013.753-.118.786-.73.069-1.278 0-2.375-1.388-3.008a4.809 4.809 0 0 1-1.392-1.286c-.662-.745-1.138-1.586-2.333-1.77a1.873 1.873 0 0 1-1.4-1.947 79.347 79.347 0 0 1-.024-3.747A2.462 2.462 0 0 1 26.334.009c1.984-.019 3.968 0 5.953 0h11.1c2.065 0 3 .942 3 3.013 0 .98.006 1.96 0 2.94a2.5 2.5 0 0 1-2.524 2.656 1.484 1.484 0 0 0-.818.461q-1.439 1.45-2.819 2.958a1.536 1.536 0 0 0-.406.782c-.064.531 0 1.077-.025 1.614-.024.5.166.711.681.694.808-.026 1.619.037 2.424-.014 2.178-.137 3.237.882 3.556 2.976h.826c3.821 0 7.643-.041 11.464.011a10.84 10.84 0 0 1 9.685 5.49 10.123 10.123 0 0 1 1.475 5.305q.01 21.973.014 43.946a2.38 2.38 0 0 1-1.878 2.38zm-12.1-54.986c0 2.862.016 5.627-.013 8.391-.006.6.162.8.779.789 2.57-.032 5.143.052 7.711-.034a3.531 3.531 0 0 1 3.764 3.719c-.085 4.576-.014 9.155-.038 13.733 0 .652.16.912.855.9a329.61 329.61 0 0 1 7.638 0c.6.005.822-.187.813-.8-.028-1.958 0-3.917-.011-5.875-.021-4.209.055-8.423-.108-12.627a8.679 8.679 0 0 0-8.683-8.236c-3.966-.016-7.932 0-11.9 0-.236-.002-.474.022-.807.039zm-2.142 5.642c.023-.291.051-.482.051-.672v-6.979c0-.853-.234-1.093-1.092-1.094q-8.191-.009-16.382 0c-.882 0-1.152.27-1.155 1.13-.006 2.3.018 4.6-.016 6.905-.009.615.231.728.774.72 1.812-.026 3.624-.01 5.436-.009a3.541 3.541 0 0 1 .587.015 1.026 1.026 0 0 1 .985 1.007.949.949 0 0 1-.879 1 4.8 4.8 0 0 1-.8.065c-1.788.006-3.576.027-5.362-.01-.6-.012-.775.191-.735.757.041.585.009 1.175.009 1.762 0 1.579.371 1.961 1.934 1.962h14.766a2.181 2.181 0 0 0 1.006-.116c.349-.2.823-.545.852-.864.1-1.13.04-2.276.04-3.485h-.87c-1.812 0-3.624.01-5.436 0-.989-.008-1.468-.45-1.346-1.216.12-.751.692-.871 1.317-.872 2.078-.01 4.156-.007 6.321-.007zm-20.607-1.027c0-1.274-.023-2.548.01-3.821.016-.6-.123-.861-.808-.853-3.16.038-6.32 0-9.481.024a8.644 8.644 0 0 0-8.38 7.26c-.3 2.663-.141 5.375-.2 8.066-.008.408.208.486.551.486 2.695-.005 5.39-.01 8.084 0 .458 0 .6-.177.581-.61a35.469 35.469 0 0 1 0-1.984 3.845 3.845 0 0 1 4.027-4.018c1.494-.007 2.989 0 4.483 0 1.132 0 1.132 0 1.133-1.171q.002-1.69.001-3.38zm34.965 36.558c0 3.622.011 7.244-.011 10.866 0 .582.128.815.767.806q3.89-.051 7.782 0c.594.007.753-.2.752-.753q-.018-10.9 0-21.805c0-.617-.213-.789-.812-.783-2.545.028-5.091.036-7.635 0-.7-.011-.863.225-.858.881.029 3.592.015 7.189.015 10.787zM9.423 43.643c2.177 0 4.353-.013 6.53.008.575.006.845-.141.826-.782a79.242 79.242 0 0 1 0-4.108c.011-.542-.188-.741-.722-.739q-6.6.015-13.206 0c-.583 0-.749.227-.734.789.036 1.3.052 2.594 0 3.888-.032.731.167.982.931.964 2.119-.053 4.247-.021 6.375-.021zM32.251 2.115c0 1.41-.017 2.7.022 4a.67.67 0 0 0 .476.448c1.492.036 2.985.039 4.476 0a.735.735 0 0 0 .526-.486c.047-1.173.04-2.348 0-3.522a.61.61 0 0 0-.423-.418c-1.654-.035-3.313-.024-5.077-.024zm-3.166 6.519l-.106.207c.93.829 1.731 1.858 3.189 1.857h5.72a3.645 3.645 0 0 0 2.695-2.061zm10.646-4.351h.062c0 .586-.037 1.176.021 1.757.019.19.277.5.434.51 1.171.041 2.345.043 3.516-.01a.771.771 0 0 0 .5-.557c.05-1.1.053-2.2 0-3.3a.813.813 0 0 0-.553-.55 11.34 11.34 0 0 0-1.756-.026c-.679.015-1.633-.207-1.962.146-.38.41-.2 1.332-.262 2.029zm-9.582-2.169h-3.861a.544.544 0 0 0-.63.62v3.152a.6.6 0 0 0 .665.692c1.124.011 2.248.021 3.371-.015a.618.618 0 0 0 .438-.412c.032-1.317.017-2.63.017-4.039zm4.845 10.6c-.343 0-.686-.008-1.028 0-2.045.059-1.667-.422-1.722 1.814-.011.453.172.6.6.6 1.077-.015 2.155.014 3.232-.007 1.96-.039 1.678.416 1.7-1.857 0-.419-.19-.557-.583-.55-.729.007-1.464-.003-2.199-.004z"/><path data-name="Path 47" d="M9.455 49.694a4.763 4.763 0 0 0-.361.462c-1.289 2.221-2.609 4.425-3.85 6.673a4.84 4.84 0 0 0 8.24 5.073c.106-.164.193-.341.3-.5a1.021 1.021 0 1 1 1.744 1.042 6.56 6.56 0 0 1-4.9 3.6 6.821 6.821 0 0 1-8.068-7.127 8.33 8.33 0 0 1 1.037-3.308c1.3-2.462 2.761-4.844 4.167-7.251.935-1.6 2.4-1.589 3.338.024q2.155 3.712 4.282 7.441a1.564 1.564 0 0 1 .26.951 1.259 1.259 0 0 1-.6.8 1.175 1.175 0 0 1-.934-.129 2 2 0 0 1-.568-.746q-1.827-3.139-3.638-6.288c-.129-.228-.276-.443-.449-.717z"/></g></svg>