<svg xmlns="http://www.w3.org/2000/svg" width="42.593" height="38.884" viewBox="0 0 42.593 38.884"><g data-name="Group 125" fill="#fecb00"><path data-name="Path 26" d="M37.679 27.473l4.8-14.363a1.393 1.393 0 0 0-.136-1.38 2.162 2.162 0 0 0-1.719-.708L13.5 11.017l-.721-3.434a1.908 1.908 0 0 0-1.937-1.58H3.22C2.43 6.003 2 6.37 2 7.108v1.983c0 .714.428.9 1.248.9h6.435l4.925 20.912a4.766 4.766 0 0 0 3.292 7.928 5.024 5.024 0 0 0 4.457-3.562h9.592a4.7 4.7 0 0 0 4.451 3.615 4.613 4.613 0 0 0 4.5-4.623 4.318 4.318 0 0 0-4.469-4.646 4.368 4.368 0 0 0-3.383 1.663h-11.79a3.734 3.734 0 0 0-3.205-1.789l-.164-.871h17.933c1.352-.001 1.618-.493 1.857-1.145zm-1.244 5.044a1.69 1.69 0 1 1-1.691 1.69 1.69 1.69 0 0 1 1.692-1.69zm-16.867 1.686a1.709 1.709 0 1 1-1.707-1.711 1.711 1.711 0 0 1 1.707 1.711z"/><g data-name="Ellipse 6" stroke="#fff" stroke-width="2"><circle cx="11" cy="11" r="11" stroke="none"/><circle cx="11" cy="11" r="10" fill="none"/></g></g></svg>