<svg xmlns="http://www.w3.org/2000/svg" width="152" height="138.688" viewBox="0 0 152 138.688"><g data-name="shopping-basket (2)" transform="translate(0 -22.419)"><path data-name="Path 138" d="M109.592 70.075l-2.225 6.625a14.471 14.471 0 0 1-18.271 9.086l-5.4-1.813L45.99 71.319a14.474 14.474 0 0 1-9.089-18.271l2.225-6.625a14.474 14.474 0 0 1 18.271-9.089l43.105 14.47a14.471 14.471 0 0 1 9.09 18.271z" fill="#78b9eb"/><path data-name="Path 139" d="M86.66 81.426l-2.956 2.547-37.706-12.654a14.474 14.474 0 0 1-9.089-18.271l2.225-6.625a14.431 14.431 0 0 1 9.443-9.185z" fill="#5aaae7"/><path data-name="Path 140" d="M78.854 84.944l-25.151 21.679-3.8 3.272L3.555 56.124l3.8-3.276 25.152-21.675z" fill="#c70024"/><path data-name="Path 141" d="M78.855 84.944l-25.151 21.679L7.357 52.849l25.151-21.676z" fill="#ff0c38"/><path data-name="Path 142" d="M35.157 34.458l-28.74 24.77a3.5 3.5 0 0 1-4.923-.366l-.651-.756a3.5 3.5 0 0 1 .366-4.923l2.274-1.961 26.463-22.81a3.5 3.5 0 0 1 4.883.319.607.607 0 0 1 .043.046l.648.756a3.5 3.5 0 0 1-.363 4.925z" fill="#a5001e"/><path data-name="Path 143" d="M34.827 28.733L8.361 51.543a3.5 3.5 0 0 1-4.88-.319l26.463-22.81a3.5 3.5 0 0 1 4.883.319z" fill="#c70024"/><circle data-name="Ellipse 10" cx="13.527" cy="13.527" r="13.527" transform="translate(24.779 53.75)" fill="#a5001e"/><path data-name="Path 144" d="M47.848 66.535l-2.318-1.823.765-3.144a2.304 2.304 0 0 0-4.478-1.09l-.516 2.12a12.973 12.973 0 0 0-3.032-.372c-2.963 0-7.07 1.112-9.81 6.407a2.305 2.305 0 0 0 .681 2.915 11.6 11.6 0 0 0 6.384 2.086c2.332 0 5.458-.862 8.068-4.582l1.406 1.106a2.305 2.305 0 0 0 2.85-3.623zm-12.324 2.489a5.806 5.806 0 0 1-1.633-.25 5.642 5.642 0 0 1 4.378-1.94 7.824 7.824 0 0 1 1.157.089 4.981 4.981 0 0 1-3.902 2.101z" fill="#ffcd00"/><path data-name="Path 145" d="M140.672 36.173l-31.666-13.335a5.324 5.324 0 0 0-6.972 2.841l-4.4 10.458-12.95 10.346a11.354 11.354 0 0 0-1.238 1.148 11.632 11.632 0 0 0-2.227 3.433L70.634 76.198a7.862 7.862 0 0 0 4.2 10.3l7.461 3.141 36.666 15.436a7.864 7.864 0 0 0 10.3-4.2l10.589-25.152a11.651 11.651 0 0 0 .859-5.638l-1.595-16.487 4.4-10.457a5.325 5.325 0 0 0-2.842-6.968z" fill="#ff728b"/><path data-name="Path 146" d="M118.956 105.072L82.29 89.636l13.632-32.38a11.652 11.652 0 0 1 3.465-4.581l12.952-10.346 26.774 11.272 1.589 16.484a11.648 11.648 0 0 1-.859 5.638l-10.589 25.152a7.863 7.863 0 0 1-10.298 4.197z" fill="#ff3f62"/><path data-name="Path 147" d="M139.114 53.602l-12.718 10.521a11.358 11.358 0 0 0-1.158 1.1 11.562 11.562 0 0 0-2.152 3.35l-13.673 32.477L74.83 86.49a7.862 7.862 0 0 1-4.2-10.3l10.581-25.133a11.632 11.632 0 0 1 2.227-3.433 11.292 11.292 0 0 1 1.238-1.148l12.95-10.345z" fill="#ff728b"/><path data-name="Path 148" d="M125.237 65.227a11.563 11.563 0 0 0-2.152 3.35l-6.488 15.41-41.83-17.61 6.448-15.315a11.633 11.633 0 0 1 2.227-3.433z" fill="#ffa5b5"/><path data-name="Path 149" d="M140.704 70.084l-1.592-16.482-12.715 10.521a11.265 11.265 0 0 0-1.158 1.1 11.594 11.594 0 0 0-2.154 3.352l-13.671 32.477 9.541 4.016a7.864 7.864 0 0 0 10.3-4.194l10.589-25.154a11.652 11.652 0 0 0 .86-5.636z" fill="#ff0c38"/><g data-name="Group 177" fill="#ff3f62"><path data-name="Path 150" d="M102.315 67.122a3.782 3.782 0 0 1-5.03 3.743q-.086-.032-.171-.068a4.272 4.272 0 0 1-.168-.075 3.782 3.782 0 0 1-.838-6.214l4.4-3.973a.938.938 0 0 1 1.565.659z"/><path data-name="Path 151" d="M106.055 39.682l-.135.329-12.947 10.346a11.252 11.252 0 0 0-1.238 1.149 11.651 11.651 0 0 0-2.225 3.432l-13.388 32.1-1.288-.541a7.86 7.86 0 0 1-4.194-10.3l10.58-25.133a11.644 11.644 0 0 1 2.228-3.432 11.253 11.253 0 0 1 1.238-1.149L97.635 36.14z"/></g><path data-name="Path 152" d="M91.994 51.233c-.092.089-.178.181-.264.273a11.651 11.651 0 0 0-2.225 3.432l-6.259 15.008-8.478-3.568 6.447-15.315a11.643 11.643 0 0 1 2.228-3.432z" fill="#ff728b"/><path data-name="Path 153" d="M139.113 53.599L97.631 36.137l4.4-10.458a5.324 5.324 0 0 1 6.972-2.841l31.668 13.335a5.324 5.324 0 0 1 2.841 6.972z" fill="#ff3f62"/><path data-name="Path 154" d="M112.376 24.257l-6.321 15.426-8.423-3.546 4.4-10.457a5.329 5.329 0 0 1 6.975-2.842z" fill="#ff0c38"/><path data-name="Path 155" d="M143.78 86.457l-21.961 67.516a6.994 6.994 0 0 1-6.649 4.83H37.191a6.994 6.994 0 0 1-6.64-4.8L8.221 86.457z" fill="#00a1c7"/><path data-name="Path 156" d="M143.78 86.457l-21.961 67.516a6.994 6.994 0 0 1-6.649 4.83H50.346a6.994 6.994 0 0 1-6.64-4.8L21.378 86.457z" fill="#16d1fc"/><path data-name="Path 157" d="M145.644 85.102a2.3 2.3 0 0 0-1.865-.95H21.501a2.305 2.305 0 1 0 0 4.609h119.1l-8.307 25.54h-13.618l3.725-17.5a2.305 2.305 0 0 0-4.508-.96l-3.929 18.459H98.437l1.574-17.776a2.304 2.304 0 1 0-4.591-.406L93.81 114.3H78.305V96.322a2.305 2.305 0 0 0-4.609 0v17.979H58.703l-1.61-18.182a2.304 2.304 0 1 0-4.591.406l1.574 17.776h-2.82a2.305 2.305 0 1 0 0 4.609h3.231l1.451 16.4H43.02l-3.49-16.4h2.507a2.305 2.305 0 1 0 0-4.609H38.55l-3.929-18.459a2.305 2.305 0 0 0-4.508.96l3.725 17.5H19.853l-8.443-25.54h.877a2.305 2.305 0 0 0 0-4.609H8.222a2.3 2.3 0 0 0-2.188 3.028l22.328 67.548a9.283 9.283 0 0 0 8.828 6.38h77.979a9.275 9.275 0 0 0 8.842-6.422l6.841-21.035a2.304 2.304 0 1 0-4.383-1.425l-1 3.081h-11.264l3.49-16.4h13.1l-1.479 4.548a2.305 2.305 0 1 0 4.383 1.426l12.267-37.715a2.306 2.306 0 0 0-.322-2.065zM93.403 118.91l-1.451 16.4H78.305v-16.4zm1.3 37.588l1.468-16.583h12.342l-3.53 16.583zm-4.627 0H78.305v-16.583h13.238zm-27.636 0l-1.468-16.583h12.724v16.583zm-3.327-37.588h14.583v16.4H60.563zm-2.767 21l1.468 16.583H47.531l-3.53-16.583zm-21.525-21l3.49 16.4H26.796l-5.419-16.4zm-2.08 34.37l-4.418-13.366h10.964l3.53 16.583h-5.63a4.68 4.68 0 0 1-4.449-3.216zm91.23-13.366l-4.34 13.344a4.677 4.677 0 0 1-4.459 3.238h-5.474l3.53-16.583h10.743zm-14.475-4.609H96.578l1.451-16.4h14.958z" fill="#00a7ce"/><path data-name="Path 158" d="M152 86.457a9.894 9.894 0 0 1-9.867 9.864H9.867a9.866 9.866 0 0 1 0-19.731h132.266a9.9 9.9 0 0 1 9.851 9.317c.01.181.016.365.016.55z" fill="#00819f"/><path data-name="Path 159" d="M151.984 85.902H19.723a9.9 9.9 0 0 1-9.848-9.317h132.258a9.9 9.9 0 0 1 9.851 9.317z" fill="#08c6f2"/><path data-name="Path 160" d="M82.693 36.025v46.846a6.692 6.692 0 1 1-13.385 0V36.025a6.684 6.684 0 0 1 11.418-4.723q.1.1.2.212a6.653 6.653 0 0 1 1.767 4.511z" fill="#09a3c7"/><path data-name="Path 161" d="M82.693 36.025V82.87a6.66 6.66 0 0 1-1.764 4.514 6.649 6.649 0 0 1-1.767-4.514V36.025a6.64 6.64 0 0 1 1.767-4.511 6.653 6.653 0 0 1 1.764 4.511z" fill="#08c6f2"/><circle data-name="Ellipse 11" cx="1.987" cy="1.987" r="1.987" transform="translate(74.013 81.068)" fill="#a4e276"/></g></svg>