<svg xmlns="http://www.w3.org/2000/svg" width="34" height="27.625" viewBox="0 0 34 27.625"><path data-name="twitter (1)" d="M34 3.27a14.532 14.532 0 0 1-4.016 1.1A6.931 6.931 0 0 0 33.05.517a13.93 13.93 0 0 1-4.42 1.687A6.97 6.97 0 0 0 16.573 6.97a7.177 7.177 0 0 0 .162 1.59A19.729 19.729 0 0 1 2.367 1.271a6.972 6.972 0 0 0 2.142 9.316 6.884 6.884 0 0 1-3.149-.859V9.8a7 7 0 0 0 5.585 6.849 6.957 6.957 0 0 1-1.828.229 6.163 6.163 0 0 1-1.32-.119 7.037 7.037 0 0 0 6.513 4.861 14.006 14.006 0 0 1-8.642 2.973A13.056 13.056 0 0 1 0 24.5a19.623 19.623 0 0 0 10.693 3.128C23.519 27.625 30.532 17 30.532 7.79c0-.308-.011-.606-.026-.9A13.905 13.905 0 0 0 34 3.27z" fill="#fff"/></svg>