<svg xmlns="http://www.w3.org/2000/svg" width="36.5" height="36.5" viewBox="0 0 36.5 36.5"><g data-name="Group 39" transform="translate(-1743.5 -14)"><rect data-name="Rectangle 8" width="36.5" height="36.5" rx="18.25" transform="translate(1743.5 14)" fill="#fff" opacity=".15"/><g data-name="Group 38"><path data-name="Path 39" d="M1771.387 25.913a8.5 8.5 0 0 1-2.349.644 4.054 4.054 0 0 0 1.794-2.257 8.148 8.148 0 0 1-2.585.987 4.077 4.077 0 0 0-7.053 2.788 4.2 4.2 0 0 0 .094.93 11.54 11.54 0 0 1-8.4-4.265 4.078 4.078 0 0 0 1.253 5.449 4.026 4.026 0 0 1-1.841-.499v.045a4.1 4.1 0 0 0 3.266 4.006 4.069 4.069 0 0 1-1.069.134 3.6 3.6 0 0 1-.772-.07 4.116 4.116 0 0 0 3.81 2.84 8.192 8.192 0 0 1-5.059 1.74 7.638 7.638 0 0 1-.976-.056 11.478 11.478 0 0 0 6.255 1.83 11.524 11.524 0 0 0 11.6-11.6c0-.18-.006-.354-.015-.527a8.134 8.134 0 0 0 2.047-2.119z" fill="#08c6f2"/></g></g></svg>