<svg xmlns="http://www.w3.org/2000/svg" width="33.218" height="39.814" viewBox="0 0 33.218 39.814"><g fill="#08c6f2"><path data-name="Path 108" d="M16.357 19.179a9.279 9.279 0 0 0 6.779-2.809 9.28 9.28 0 0 0 2.809-6.78 9.28 9.28 0 0 0-2.809-6.78 9.587 9.587 0 0 0-13.56 0 9.279 9.279 0 0 0-2.809 6.78 9.279 9.279 0 0 0 2.809 6.781 9.282 9.282 0 0 0 6.781 2.808zm-5.13-14.72a7.254 7.254 0 0 1 10.261 0 6.933 6.933 0 0 1 2.126 5.13 6.933 6.933 0 0 1-2.126 5.131 7.253 7.253 0 0 1-10.261 0 6.931 6.931 0 0 1-2.126-5.131 6.932 6.932 0 0 1 2.126-5.13zm0 0"/><path data-name="Path 109" d="M33.137 30.616a23.686 23.686 0 0 0-.323-2.516 19.822 19.822 0 0 0-.619-2.529 12.5 12.5 0 0 0-1.04-2.359 8.893 8.893 0 0 0-1.568-2.043 6.913 6.913 0 0 0-2.252-1.415 7.784 7.784 0 0 0-2.875-.52 2.918 2.918 0 0 0-1.559.661c-.467.3-1.014.657-1.624 1.047a9.3 9.3 0 0 1-2.1.926 8.157 8.157 0 0 1-5.139 0 9.275 9.275 0 0 1-2.1-.925c-.6-.386-1.151-.738-1.625-1.047a2.915 2.915 0 0 0-1.558-.661 7.774 7.774 0 0 0-2.875.521 6.907 6.907 0 0 0-2.253 1.415 8.894 8.894 0 0 0-1.567 2.045 12.518 12.518 0 0 0-1.04 2.359A19.869 19.869 0 0 0 .4 28.1a23.525 23.525 0 0 0-.321 2.516c-.053.76-.08 1.552-.08 2.351a6.611 6.611 0 0 0 1.964 5 7.068 7.068 0 0 0 5.06 1.845h19.171a7.068 7.068 0 0 0 5.059-1.845 6.609 6.609 0 0 0 1.964-5c0-.8-.027-1.594-.08-2.352zm-3.492 5.663a4.759 4.759 0 0 1-3.451 1.2H7.023a4.759 4.759 0 0 1-3.451-1.2 4.317 4.317 0 0 1-1.239-3.312c0-.746.025-1.483.074-2.19a21.219 21.219 0 0 1 .293-2.261 17.522 17.522 0 0 1 .544-2.23 10.191 10.191 0 0 1 .846-1.918 6.592 6.592 0 0 1 1.152-1.51 4.586 4.586 0 0 1 1.5-.932 5.369 5.369 0 0 1 1.837-.354c.082.043.227.126.463.28.48.313 1.032.669 1.644 1.06a11.56 11.56 0 0 0 2.637 1.178 10.489 10.489 0 0 0 6.574 0 11.573 11.573 0 0 0 2.638-1.179c.625-.4 1.163-.746 1.642-1.059.236-.153.381-.237.463-.28a5.373 5.373 0 0 1 1.838.354 4.593 4.593 0 0 1 1.5.932 6.575 6.575 0 0 1 1.152 1.51 10.157 10.157 0 0 1 .847 1.918 17.483 17.483 0 0 1 .544 2.23 21.4 21.4 0 0 1 .292 2.266c.05.7.074 1.441.075 2.189a4.317 4.317 0 0 1-1.239 3.311zm0 0"/></g></svg>