<svg xmlns="http://www.w3.org/2000/svg" width="60" height="73.143" viewBox="0 0 60 73.143"><g data-name="Group 143"><g data-name="Group 142"><path data-name="Path 122" d="M44.286 61.286a1.429 1.429 0 1 0 1.429 1.429 1.429 1.429 0 0 0-1.429-1.429z" fill="#fff"/></g></g><g data-name="Group 145"><g data-name="Group 144"><path data-name="Path 123" d="M15.715 61.286a1.429 1.429 0 1 0 1.429 1.429 1.429 1.429 0 0 0-1.429-1.429z" fill="#fff"/></g></g><g data-name="Group 147"><g data-name="Group 146"><path data-name="Path 124" d="M57.378 53.887a16.144 16.144 0 0 0-6.407-5.744 1.421 1.421 0 0 0-.811-.373 14.944 14.944 0 0 0-5.874-1.2H40V42.8a16.387 16.387 0 0 0 5.128-8.088h.587a5.711 5.711 0 0 0 4.2-9.587 4.23 4.23 0 0 0 .262-.24 4.284 4.284 0 0 0-1.655-7.085A15.768 15.768 0 0 0 37.059 3.858 4.545 4.545 0 0 0 32.857 0h-5.714a4.545 4.545 0 0 0-4.2 3.858A15.768 15.768 0 0 0 11.478 17.8a4.283 4.283 0 0 0-1.388 7.327 5.71 5.71 0 0 0 4.2 9.588h.583a16.421 16.421 0 0 0 4 7.019c.359.374.739.73 1.133 1.068v3.77h-4.292a14.946 14.946 0 0 0-5.874 1.2 1.422 1.422 0 0 0-.811.373A16.368 16.368 0 0 0 0 62.714v9a1.429 1.429 0 0 0 1.429 1.429h57.143A1.429 1.429 0 0 0 60 71.714v-9a16.242 16.242 0 0 0-2.622-8.827zm-48.806 16.4H2.857v-7.573a13.647 13.647 0 0 1 5.714-10.983zm37.142-38.43h-.065c.043-.475.065-.952.065-1.429v-4.285a2.857 2.857 0 1 1 0 5.714zM22.857 6.877v6.409a1.429 1.429 0 1 0 2.857 0V4.714c0-.885.748-1.857 1.429-1.857h5.714c.681 0 1.429.972 1.429 1.857v8.571a1.429 1.429 0 0 0 2.857 0V6.877a12.914 12.914 0 0 1 8.492 10.694H14.366a12.914 12.914 0 0 1 8.491-10.694zm-8.571 24.98a2.857 2.857 0 1 1 0-5.714v4.286c0 .476.023.953.065 1.429zm0-8.571h-1.429a1.429 1.429 0 0 1 0-2.857h34.286a1.429 1.429 0 0 1 0 2.857H14.286zm3.117 9.74c0-.016-.006-.031-.009-.046a13.176 13.176 0 0 1-.251-2.551v-4.286h25.714v4.286a13.181 13.181 0 0 1-.251 2.551c0 .015-.006.031-.009.047a13.533 13.533 0 0 1-4.978 8.034 12.265 12.265 0 0 1-15.241 0 13.239 13.239 0 0 1-1.449-1.3 13.547 13.547 0 0 1-3.529-6.735zm11.169 37.26H17.143V67a1.429 1.429 0 0 0-2.857 0v3.286h-2.857V50.211a12.091 12.091 0 0 1 2.857-.7v8.915a1.429 1.429 0 0 0 2.857 0v-9h3.674l7.755 8.143zm-5.715-22.857v-2.661a15.045 15.045 0 0 0 14.286 0v2.661L30 54.929zm25.714 22.857h-2.857V67a1.429 1.429 0 0 0-2.857 0v3.286H31.429V57.571l7.755-8.143h3.674v9a1.429 1.429 0 0 0 2.857 0v-8.915a12.094 12.094 0 0 1 2.857.7zm8.571 0h-5.713V51.732a13.647 13.647 0 0 1 5.714 10.983z" fill="#fff"/></g></g></svg>